<svg xmlns="http://www.w3.org/2000/svg" viewBox="0 0 32 32"><style>.st0{display:none}.st1{fill:#2067d1}.st1,.st2,.st3{display:inline}.st3{fill:#010101}.st4{fill:#2067d1}</style><g id="Layer_1" class="st0"><circle class="st1" cx="15.9" cy="10.8" r="3.9"/><path class="st2" d="M30.4 3.8h-.7V.4c0-.2-.2-.4-.4-.4h-3.9c-.3 0-.4.2-.4.4v3.3h-1.3c-.1-.1-.3-.2-.4-.3-.3-.2-.7-.3-1-.3-.6 0-1.1.2-1.5.6h-9.4c-.4-.4-.9-.6-1.5-.6-.4 0-.7.1-1.1.3-.2.1-.3.2-.5.4H7V.4c0-.2-.1-.4-.4-.4H2.8c-.3 0-.5.2-.5.4v3.3h-.7c-.2 0-.4.2-.4.4s.2.4.4.4h.7v3.3c0 .2.2.4.4.4h3.9c.3.1.4 0 .4-.3V4.6h.7c-.2.5-.2 1.1 0 1.7l3.5 8.4c.1.3.2.7.2 1.1v14.3c0 1.1.9 1.9 1.9 1.9 1.1 0 1.9-.9 1.9-1.9v-5c0-.4.3-.7.7-.7.4 0 .7.3.7.7v5c0 1.1.9 1.9 1.9 1.9 1.1 0 1.9-.9 1.9-1.9V15.8c0-.4.1-.7.2-1.1l3.5-8.4c.2-.6.2-1.2 0-1.7h.9v3.3c0 .2.2.4.4.4h3.9c.2 0 .4-.2.4-.4V4.6h.7c.2 0 .4-.2.4-.4s-.2-.4-.4-.4zM3.2.8h1.1v6.7H3.2V.8zm3 6.7H5.1V.8h1.1v6.7zm9.8-.2c2 0 3.6 1.6 3.6 3.5 0 2-1.6 3.5-3.6 3.5s-3.6-1.6-3.6-3.5S14 7.3 16 7.3zm2.7.1c-.8-.6-1.7-1-2.7-1-1 0-2 .4-2.8 1l-1.4-2.8H20l-1.3 2.8zM23.5 6L20 14.4c-.2.4-.3.9-.3 1.4v14.3c0 .6-.5 1.1-1.1 1.1-.6 0-1.1-.5-1.1-1.1v-5c0-.8-.7-1.5-1.5-1.5s-1.5.7-1.5 1.5v5c0 .6-.5 1.1-1.1 1.1-.6 0-1.1-.5-1.1-1.1V15.8c0-.5-.1-.9-.3-1.4L8.5 6c-.3-.7 0-1.4.6-1.8.3-.1.5-.2.7-.2.5 0 1 .3 1.3.8L12.6 8c-.6.8-1 1.7-1 2.8 0 2.4 2 4.4 4.4 4.4 2.4 0 4.4-2 4.4-4.4 0-1.1-.4-2-1-2.8l1.5-3.2c.2-.5.7-.8 1.3-.8.2 0 .5.1.7.2.6.3.8 1.1.6 1.8zM25.8.8h1.1v6.7h-1.1V.8zm3 6.7h-1.1V.8h1.1v6.7z"/></g><g id="Layer_2" class="st0"><path class="st1" d="M10.5 12.3h12.6v8.8H10.5z"/><path class="st3" d="M31.2 28.8c-.4 0-.6-.2-1-.5-.4-.4-1-1-2.1-1s-1.7.6-2.1 1c-.4.4-.5.5-1 .5-.4 0-.6-.2-1-.5-.4-.4-1-1-2.1-1s-1.7.6-2.1 1c-.4.4-.5.5-1 .5s-.6-.2-1-.5c-.4-.4-1-1-2.1-1s-1.7.6-2.1 1c-.4.4-.5.5-1 .5-.4 0-.6-.2-1-.5-.4-.4-1-1-2.1-1s-1.7.6-2.1 1c-.4.4-.5.5-1 .5-.4 0-.6-.2-1-.5-.4-.4-1-1-2.1-1s-1.7.6-2.1 1c-.4.4-.5.5-1 .5-.4 0-.8.4-.8.8s.4.8.8.8c1.1 0 1.7-.6 2.1-1 .4-.4.5-.5 1-.5.4 0 .6.2 1 .5.4.4 1 1 2.1 1s1.7-.6 2.1-1c.4-.4.5-.5 1-.5.4 0 .6.2 1 .5.4.4 1 1 2.1 1s1.7-.6 2.1-1c.4-.4.5-.5 1-.5.4 0 .6.2 1 .5.4.4 1 1 2.1 1s1.7-.6 2.1-1c.4-.4.5-.5 1-.5.4 0 .6.2 1 .5.4.4 1 1 2.1 1s1.7-.6 2.1-1c.4-.4.5-.5 1-.5.4 0 .6.2 1 .5.4.4 1 1 2.1 1 .4 0 .8-.4.8-.8s-.4-.8-.8-.8zm0-3.3c-.4 0-.6-.2-1-.5-.4-.4-1-1-2.1-1s-1.7.6-2.1 1c-.4.4-.5.5-1 .5-.4 0-.6-.2-1-.5l-.2-.2V6.4c0-1.8 1.4-3.2 3.2-3.2 1.8 0 3.2 1.4 3.2 3.2 0 .4.4.8.8.8s1-.4 1-.8c0-2.6-2.2-4.8-4.8-4.8s-4.8 2.2-4.8 4.8v4.8H11.2V6.4c0-1.8 1.4-3.2 3.2-3.2 1.8 0 3.2 1.4 3.2 3.2 0 .4.4.8.8.8s.8-.4.8-.8c0-2.6-2.2-4.8-4.8-4.8S9.6 3.8 9.6 6.4V24c-.9.1-1.4.6-1.8 1-.4.4-.5.5-1 .5-.4 0-.6-.2-1-.5-.4-.4-1-1-2.1-1s-1.7.6-2.1 1c-.4.4-.5.5-1 .5-.4 0-.8.4-.8.8s.4.8.8.8c1.1 0 1.7-.6 2.1-1 .4-.4.5-.5 1-.5.4 0 .6.2 1 .5.4.4 1 1 2.1 1s1.7-.6 2.1-1c.4-.4.5-.5 1-.5.4 0 .6.2 1 .5.4.4 1 1 2.1 1s1.7-.6 2.1-1c.4-.4.5-.5 1-.5s.6.2 1 .5c.4.4 1 1 2.1 1s1.7-.6 2.1-1c.4-.4.5-.5 1-.5.4 0 .6.2 1 .5.4.4 1 1 2.1 1s1.7-.6 2.1-1c.4-.4.5-.5 1-.5.4 0 .6.2 1 .5.4.4 1 1 2.1 1 .4 0 .8-.4.8-.8-.4-.4-.8-.8-1.2-.8zM22.4 24h-.3c-1.1 0-1.7.6-2.1 1-.4.4-.5.5-1 .5s-.6-.2-1-.5c-.4-.4-1-1-2.1-1s-1.7.6-2.1 1c-.4.4-.5.5-1 .5s-.6-.2-1-.5c-.2-.2-.5-.5-.8-.7v-1.9h11.2l.2 1.6zm0-3.2H11.2v-3.2h11.2v3.2zm0-4.8H11.2v-3.2h11.2V16z"/></g><g id="Layer_3" class="st0"><path class="st1" d="M18.6 23.8l6.3-3 1.3-.8 1.2-1s2-.5 3.1 1.1c0 0 1.3 1.6-.2 3.4l-.7.9-3.3 6.6s-2.3 1.3-2.1-1.3c0 0-2 .5-2.1-1.9 0 0-2 .3-1.8-1.9-.1-.1-2.4.2-1.7-2.1z"/><path class="st2" d="M28.4 18.6c-.8 0-1.6.3-2.1.9l-.6.6-.1.1-7 3.3s-.1 0-.1.1c-.6.6-.6 1.6 0 2.3.3.3.7.5 1.1.5h.3c-.1.5.1 1.1.4 1.4.3.3.7.5 1.1.5h.3c-.1.5.1 1.1.4 1.4.3.3.7.5 1.1.5h.3v.3c0 .4.2.8.5 1.1.3.3.7.5 1.1.5.4 0 .8-.2 1.1-.5l.1-.1 3.4-6.9.7-.7c.6-.6.9-1.3.9-2.1s-.3-1.6-.9-2.1c-.4-.8-1.2-1.1-2-1.1zm1.3 5.2l-3.5-3.5.2-.2 3.5 3.5-.2.2zm-10 1.9c-.3 0-.5-.1-.7-.3-.4-.4-.4-1 0-1.5l5.6-2.6-4.1 4.1c-.3.1-.5.3-.8.3zm1.9 1.8c-.3 0-.5-.1-.7-.3-.4-.4-.4-1.1 0-1.5l5-5 .6.6.9.9-5 5c-.3.2-.5.3-.8.3zm1.9 1.9c-.3 0-.5-.1-.7-.3-.4-.4-.4-1.1 0-1.5l5-5 1.5 1.5-4.9 4.9c-.4.3-.7.4-.9.4zm2.6 1.6c-.4.4-1.1.4-1.5 0-.2-.2-.3-.5-.3-.7s.1-.5.3-.7l.3-.3 4.1-4.1-2.9 5.8zm4.2-7.8l-3.5-3.5c.4-.4 1-.6 1.6-.6.7 0 1.3.3 1.7.7.5.5.7 1.1.7 1.7.1.7-.1 1.2-.5 1.7zM3.7 26.8l-1.3 1.3c-.1.1-.1.3 0 .4.1.1.1.1.2.1s.1 0 .2-.1l1.3-1.3c.1-.1.1-.3 0-.4-.1-.1-.3-.1-.4 0zm3.5-3.6l-3 3c-.1.1-.1.3 0 .4.1.1.1.1.2.1s.1 0 .2-.1l3-3c.1-.1.1-.3 0-.4-.1-.1-.2-.1-.4 0zM30 2c-1.3-1.3-3.1-2-5.1-2-2.8 0-5.6 1.3-7.9 3.5-3.8 3.8-4.6 9.4-1.9 12.6.1.1.1.3 0 .4l-5.6 5.6s0 .1-.1.1l-.6-.6c-.1-.1-.2-.1-.3-.1l-1.2.4-7.2 7.2c-.1.1-.1.1-.1.2s0 .1.1.2l2.4 2.4c.1.1.1.1.2.1s.1 0 .2-.1l7.2-7.2.4-1.2c0-.1 0-.2-.1-.3l-.6-.6s.1 0 .1-.1l5.6-5.6c.1-.1.3-.1.4 0 1.3 1.1 2.9 1.6 4.7 1.6 2.8 0 5.6-1.3 7.9-3.5 1.9-1.9 3.2-4.3 3.5-6.8.2-2.5-.5-4.7-2-6.2zM2.7 31.3l-2-2 6.8-6.8 2 2-6.8 6.8zM9.8 24L8 22.2l.6-.2 1.4 1.4-.2.6zM31.4 8.1c-.3 2.3-1.5 4.6-3.3 6.5-2.1 2.1-4.9 3.4-7.5 3.4-1.9 0-3.5-.6-4.7-1.8C13 13.3 13.6 7.8 17.4 4 19.5 1.9 22.3.6 24.9.6c1.9 0 3.5.6 4.7 1.8 1.4 1.4 2.1 3.4 1.8 5.7zm-.5-1.3c-.1-1.5-.7-2.9-1.7-4C28 1.6 26.5 1 24.7 1c-2.5 0-5 1.1-7 3.1-1.8 1.8-2.9 4.2-3.1 6.3v1.2c.1 1.5.7 2.9 1.7 4 1 1 2.5 1.6 4.1 1.8h.5c2.5 0 5-1.1 7-3.1.5-.5 1-1.1 1.4-1.7 1-1.4 1.5-3 1.7-4.5 0-.4 0-.9-.1-1.3zM29 12l-1.5-1.5 2.7-2.7.3.3c-.3 1.3-.7 2.7-1.5 3.9zm-7.5 4.8c-.1-.1-.1-.3 0-.4l2.3-2.3c.1-.1.3-.1.4 0l1.1 1.1c.1.1.1.3-.1.4-1.1.6-2.3 1.1-3.5 1.2 0 .1-.1 0-.2 0zm-4.4-1.5l.9-.9c.1-.1.3-.1.4 0l2 2c.1.1.1.3 0 .4-.1.1-.1.1-.2.1-1.1-.1-2.2-.5-3-1.2-.2-.1-.2-.3-.1-.4zm-1.9-3.6c.1-.1.3-.1.4 0l2 2c.1.1.1.3 0 .4l-.9.9c-.1.1-.3.1-.4 0-.7-.8-1.1-1.9-1.2-3 0-.2 0-.3.1-.3zm1.6-5l1.1 1.1c.1.1.1.3 0 .4l-2.3 2.3c-.1.1-.3.1-.4 0-.1-.1-.1-.1-.1-.2.1-1.2.5-2.3 1.2-3.5.1-.2.3-.2.5-.1zm7.1-5.1l.3.3-2.5 2.5c-.1.1-.3.1-.4 0L20 3c1.2-.7 2.5-1.2 3.9-1.4zM28.6 3l-1.3 1.3-2.4-2.4.3-.3c1.4.1 2.5.6 3.4 1.4zm1.8 3.8l-.3.3-2.4-2.4L29 3.4c.8.9 1.3 2.1 1.4 3.4zm-5.9-4.5l2.2 2.2c.1.1.1.3 0 .4l-2.3 2.3c-.1.1-.3.1-.4 0l-2-2c-.1-.1-.1-.3 0-.4l2.5-2.5zm-.8 5.6l-2.3 2.3c-.1.1-.3.1-.4 0l-2-2c-.1-.1-.1-.3 0-.4l2.3-2.3c.1-.1.3-.1.4 0l2 2c.1.1.1.3 0 .4zM20.6 11l-2.3 2.3c-.1.1-.3.1-.4 0l-2-2c-.1-.1-.1-.3 0-.4l2.3-2.3c.1-.1.3-.1.4 0l2 2c.1.1.1.3 0 .4zm.2 5l-2-2c-.1-.1-.1-.3 0-.4l2.3-2.3c.1-.1.3-.1.4 0l2 2c.1.1.1.3 0 .4L21.1 16c-.1.1-.2.1-.3 0zm1-5.4l2.3-2.3c.1-.1.3-.1.4 0l2 2c.1.1.1.3 0 .4L24.2 13c-.1.1-.3.1-.4 0l-2-2c-.1-.1-.1-.3 0-.4zm3.1-3.1L27.4 5l2.4 2.4-2.8 2.7-2.2-2.2c-.1-.1-.1-.3.1-.4zM18 4.6c.4-.4.8-.8 1.2-1.1.1-.1.3-.1.4 0l1.3 1.3c.1.1.1.3 0 .4l-2.3 2.3c-.1.1-.3.1-.4 0L17 6.2c-.1-.1-.1-.2 0-.4.3-.4.7-.8 1-1.2zm9.4 9.3c-.4.4-.8.8-1.2 1.1-.1.1-.3.1-.4 0l-1.3-1.3c-.1-.1-.1-.3 0-.4l2.5-2.5 1.6 1.6c-.3.6-.7 1.1-1.2 1.5z"/></g><g id="Layer_4" class="st0"><path class="st1" d="M1.9 10.7h28.4v8.8H1.9z"/><path class="st2" d="M26.2 10.1L24.5.6h-17l-1.7 9.5H0v1.1h1.2v9.5h1.1v-.6H4L1.7 31.4h28.5L28 20.1h1.6v.6h1.1v-9.5H32v-1.1h-5.8zm-1.1 1.1h1.8v2h-1.8v-2zm0 3h1.8v1.9h-1.8v-1.9zm0 3h1.8V19h-1.8v-1.8zM8.4 1.7h15.2l1.5 8.4H6.9l1.5-8.4zm13.9 14.4v-1.9h1.8v1.9h-1.8zm1.8 1.1V19h-1.9v-1.9h1.9zm-1.8-4.1v-2h1.8v2h-1.8zm-2.9 3v-1.9h1.8v1.9h-1.8zm1.8 1.1v1.9h-1.8v-1.9h1.8zm-1.8-4.1v-2h1.9v2h-1.9zm-2.9 3v-1.9h1.8v1.9h-1.8zm1.8 1.1V19h-1.8v-1.9h1.8zm-1.8-4.1v-2h1.8v2h-1.8zm-2.8 3v-1.9h1.8v1.9h-1.8zm1.8 1.1V19h-1.8v-1.9h1.8zm-1.8-4.1v-2h1.8v2h-1.8zm-2.8 3v-1.9h1.8v1.9h-1.8zm1.7 1.1V19h-1.8v-1.9h1.8zm-1.7-4.1v-2h1.8v2h-1.8zm-1.1 1.1v1.9H7.9v-1.9h1.9zm-1.9-1.1v-2h1.9v2H7.9zm0 4.1h1.9V19H7.9v-1.8zm-2.8-6h1.8v2H5.1v-2zm0 3h1.8v1.9H5.1v-1.9zm0 3h1.8V19H5.1v-1.8zm-2.8-6H4v2H2.3v-2zm0 3H4v1.9H2.3v-1.9zm0 4.8v-1.9H4V19H2.3zM29 30.3H3l2-10.2h22l2 10.2zm.7-11.3H28v-1.9h1.8V19zm0-2.9H28v-1.9h1.8v1.9zm0-3H28v-2h1.8v2zM12.3 5.4c-.9 0-1.7.8-1.7 1.7s.7 1.7 1.7 1.7S14 8 14 7.1s-.7-1.7-1.7-1.7zm0 2.3c-.3 0-.6-.3-.6-.6s.3-.6.6-.6.6.3.6.6-.2.6-.6.6z"/></g><g id="Layer_5" class="st0"><path class="st1" d="M1.5 5.6S5.3 1.5 9 3l2.2 1.7 1.2 2.1 1.2 1.9.7 1.6.3 1.9v2.2l-.6 1.3-.5.8-.5.5-1.5.9-2 .2-1.5-.2-2-.6-1.8-1.7-1.7-2.7-1.2-1.7-.7-1.8V7.5c0-.2.9-1.9.9-1.9z"/><path class="st2" d="M28.8 3.4c-2.3-1.5-4.3-1.8-6.1-.8-1.6.8-2.8 2.4-4.2 4.4-1.3 1.9-1.9 4.1-1.8 6.1.1 1.1.4 2.1.8 3-.2.5-.3 1-.5 1.5-.2.7-.4 1.4-.7 2l-.3 1.2v0l-.4-1.3c-.2-.7-.4-1.4-.7-2-.2-.5-.3-1-.5-1.5.5-.8.8-1.9.8-3 .1-2-.5-4.2-1.8-6.1-1.4-2.1-2.6-3.6-4.2-4.4-1.7-.9-3.7-.6-6 .9S-.1 6.6 0 8.7c.1 1.7 1.1 3.5 2.4 5.6 1.3 1.9 3 3.3 4.9 4 1.1.4 2.1.5 3.1.4l.2.2c.5.5 1 .9 1.6 1.4.5.4 1 .9 1.5 1.3.2.1.3.3.5.4l.1.1.4.7-3.2 4.4c0 .1-.1.1-.1.2-.1 0-.1.1-.2.1l-.3.3c-.2.2-.2.5-.2.7 0 .2.1.5.3.7.1.1.2.2.4.3l.4.3c.1.1.3.2.4.2.5.2 1 0 1.3-.5.1-.1.1-.3.2-.4v-.2-.1s0-.1.1-.1l.6-.9 1.7-2.9 1.7 2.9.6.9s0 .1.1.1V29.1c0 .2.1.3.2.4.3.4.8.6 1.3.5.1 0 .3-.1.4-.2l.4-.3c.1-.1.3-.2.4-.3.2-.2.2-.4.3-.7 0-.3-.1-.5-.2-.7l-.3-.3c-.1 0-.1-.1-.2-.1 0-.1-.1-.1-.1-.2l-3.2-4.4.4-.7.1-.1c.2-.1.3-.3.5-.4.5-.4 1-.9 1.5-1.3.5-.5 1-.9 1.6-1.4l.2-.2c1 .1 2 0 3.1-.4 1.9-.7 3.6-2.1 4.9-4 1.4-2.1 2.3-3.8 2.4-5.6-.1-2.1-1.1-3.8-3.4-5.3zm-.3 1.2c.8.5 1.3 1.1 1.7 1.7l-.1.2-2-1.3.4-.6zm-10 9.4l1.3-2 2 1.3-1.3 2-2-1.3zm1.5 2l-.4.6c-.5-.4-.9-1-1.2-1.6l1.6 1zm.2-4.6l1.3-2 2 1.3-1.3 2-2-1.3zm1.7-2.7l1.3-2 2 1.3-1.3 2-2-1.3zm2.2 2.5l2 1.3-1.3 2-2-1.3 1.3-2zm.5-.7l1.3-2 2 1.3-1.3 2-2-1.3zm1.8-2.7l1.3-2 2 1.3-1.3 2-2-1.3zm-.8-4.6c.7.1 1.4.4 2.2.9l-.4.6-2-1.3.2-.2zm-.6.9l2 1.3-1.3 2-2-1.3 1.3-2zm-1.8-.5c.2-.1.4-.2.6-.2l.5.3-1.3 2-1.3-.9c.5-.5 1-.9 1.5-1.2zm-2.1 1.8l1.4.9-1.3 2-1.5-1c.5-.7.9-1.3 1.4-1.9zM19.3 8l1.5 1-1.3 2-1.2-.8c.2-.8.5-1.5 1-2.2zm-1.2 3l1 .6-1.1 1.7c-.1-.7-.1-1.5.1-2.3zm-4 2.3L13 11.6l1-.6c.1.8.1 1.6.1 2.3zm-8-4.8l1.3 2-2 1.3-1.3-2 2-1.3zm-2.4.6l-1.3-2 2-1.3 1.3 2-2 1.3zm3.1-1l2-1.3 1.3 2-2 1.3-1.3-2zm1.1 3.1l1.3 2-2 1.3-1.3-2 2-1.3zm.7-.5l2-1.3 1.3 2-2 1.3-1.3-2zm3.7 1.4l1.3 2-2 1.3-1.3-2 2-1.3zm1.3 2.9c-.3.6-.7 1.2-1.2 1.6L12 16l1.6-1zm.1-4.9l-1.2.8-1.3-2 1.5-1c.5.8.8 1.5 1 2.2zm-1.4-2.8l-1.5 1-1.3-2 1.4-.9c.5.6.9 1.2 1.4 1.9zm-4.1-4c.2.1.4.1.6.2.5.3 1 .7 1.5 1.2L9 5.6l-1.3-2 .5-.3zm.1 2.8l-2 1.3-1.3-2 2-1.3 1.3 2zM6.4 3.2l.1.2-2 1.3-.3-.6c.8-.4 1.5-.7 2.2-.9zM3.5 4.6l.4.6-2 1.3-.1-.2c.4-.6 1-1.2 1.7-1.7zm-2.3 4V8l.5-.3 1.3 2-1.3.9c-.3-.8-.5-1.4-.5-2zm.8 2.6l1.4-.9 1.3 2-1.5 1L2 11.2zm1.7 2.7l1.5-1 1.3 2-1.2.8c-.6-.5-1.1-1.1-1.6-1.8zM6 16.2l1-.6 1 1.7c-.7-.3-1.4-.6-2-1.1zm2.9.9l-1.3-2 2-1.3 1.3 2-2 1.3zm.9.4l1.6-1 .4.6c-.7.3-1.3.4-2 .4zm3.9 2.5c-.5-.4-1-.9-1.5-1.3l-.3-.3 1.7-1.1c.1.4.3.8.4 1.2.2.6.4 1.3.6 1.9 0 .1.1.3.1.4-.3-.3-.7-.6-1-.8zm6.1-1.4c-.5.4-1 .9-1.5 1.3-.3.3-.7.6-1 .9 0-.1.1-.3.1-.4.2-.6.4-1.3.6-1.9.1-.4.3-.8.4-1.2l1.7 1.1c-.1.1-.2.1-.3.2zm.5-1.5l.4-.6 1.6 1c-.8 0-1.4-.1-2-.4zm.8-1.3l1.3-2 2 1.3-1.3 2-2-1.3zm2.9 1.5l1.1-1.7 1 .6c-.7.5-1.4.8-2.1 1.1zm2.7-1.6l-1.2-.8 1.3-2 1.5 1c-.5.7-1 1.3-1.6 1.8zm2.1-2.5l-1.5-1 1.3-2 1.4.9c-.4.8-.8 1.5-1.2 2.1zm2-4.6c0 .6-.2 1.2-.5 1.9L29 9.6l1.3-2 .5.4v.6z"/></g><g id="Layer_6" class="st0"><path class="st1" d="M7.7 17.5h5.6v4.2H7.7zM18.6 17.5h5.8v4.4h-5.8z"/><path class="st2" d="M31.5 26h-.6L28.7 6.8c-.1-1-1-1.8-2-1.8H5.3c-1 0-1.9.8-2 1.8L1.1 26H.5c-.3 0-.5.2-.5.5s.2.5.5.5h2c.3 0 .5-.2.5-.5s-.2-.5-.5-.5h-.4l2-17.5H7V21c0 .8.7 1.5 1.5 1.5h4c.8 0 1.5-.7 1.5-1.5V8.5h4V21c0 .8.7 1.5 1.5 1.5h4c.8 0 1.5-.7 1.5-1.5V8.5h2.9l2 17.5h-.4c-.3 0-.5.2-.5.5s.2.5.5.5h2c.3 0 .5-.2.5-.5s-.2-.5-.5-.5zM13 19H8v-1h5v1zm-.5 2.5h-4c-.3 0-.5-.2-.5-.5v-1h5v1c0 .3-.2.5-.5.5zM13 17H8V8.5h5V17zm11 2h-5v-1h5v1zm-.5 2.5h-4c-.3 0-.5-.2-.5-.5v-1h5v1c0 .3-.2.5-.5.5zM24 17h-5V8.5h5V17zm1-9.5c0-.3-.2-.5-.5-.5s-.5.2-.5.5h-5c0-.3-.2-.5-.5-.5s-.5.2-.5.5h-4c0-.3-.2-.5-.5-.5s-.5.2-.5.5H8c0-.3-.2-.5-.5-.5s-.5.2-.5.5H4.3l.1-.6c0-.5.4-.9.9-.9h21.3c.5 0 .9.4 1 .9l.1.6H25z"/></g><g id="Layer_7"><path class="st4" d="M4.4 3.5l1.1-.6h1.8s.7.5.9.6c.1 0 .5.5.5.5h.8s.4-.2.6 0c.2.2.7.6.9.5.2-.1.2-.2.5 0s.6.7.7.9.1.6 0 .6c-.1.1-.8.3-.8.3h-7c0 .2-1.1-1.2 0-2.8zm18.8 7.2h8v-1c0-.1-.8-1-.8-1s-1.8-.3-1.9-.2c-.1 0-.5.2-.5.2s-.6-.5-.7-.7-.3-.3-.3-.3-1.1-.7-1.5-.6c-.5.1-.6-.2-.8 0-.2.2-.6 0-.6 0l-.6.5-.6.8c-.4 1.5.3 2.3.3 2.3z"/><path d="M25.7 18c-.8 0-1.6.2-2.3.4l-2.5-4.8s-.2-.6-.7-.6h-2c-.3 0-.6.3-.6.6s.3.6.6.6h1.6l1 2h-7.2l-.5-1.4h.9c.3 0 .6-.3.6-.6s-.3-.6-.6-.6h-3.6c-.3 0-.6.3-.6.6s.3.6.6.6H12l.6 1.9-2.8 2.8C8.7 18.5 7.4 18 6 18c-3.3 0-6 2.7-6 6s2.7 6 6 6c3.1 0 5.6-2.3 5.9-5.3h.8c.3 1 1.1 1.9 2.1 2.1v.8h-1c-.3 0-.6.3-.6.6s.3.6.6.6h1.6c.3 0 .6-.3.6-.6v-1.4c1.3-.3 2.2-1.4 2.2-2.8 0-.6-.2-1.2-.6-1.7l3.9-4.6.7 1.4c-1.6 1.1-2.7 2.9-2.7 5 0 3.3 2.7 6 6 6s6-2.7 6-6S29 18 25.7 18zM6 28.7c-2.6 0-4.8-2.1-4.8-4.8s2.1-4.8 4.8-4.8c1.1 0 2.1.4 2.9 1l-3.4 3.4c-.2.2-.2.6 0 .8.1.1.3.2.4.2H6c.1.1.2.1.3.1h4.4c-.3 2.4-2.3 4.1-4.7 4.1zm1.3-5.3L9.7 21c.5.7.9 1.5 1 2.4H7.3zm5.4 0h-.8c-.1-1.2-.6-2.4-1.3-3.3l2.3-2.3 1.1 3.7c-.6.4-1.2 1.1-1.3 1.9zm3.4 2.1v-1.3c0-.3-.3-.6-.6-.6s-.6.3-.6.6v1.3c-.6-.2-1-.8-1-1.5 0-.9.7-1.6 1.6-1.6s1.6.7 1.6 1.6c0 .7-.4 1.2-1 1.5zm.7-4c-.4-.2-.8-.3-1.3-.3h-.3L14 17.3h6.3l-3.5 4.2zm8.9 7.2c-2.6 0-4.8-2.1-4.8-4.8 0-1.6.8-3 2-3.9l2.4 4.6c.1.2.3.3.5.3.1 0 .2 0 .3-.1.3-.2.4-.5.3-.8L24 19.5c.5-.2 1.1-.3 1.7-.3 2.6 0 4.8 2.1 4.8 4.8s-2.2 4.7-4.8 4.7zM4.1 7.1h8.5c.3 0 .6-.2.6-.5v-.3c0-1.6-1.3-3-3-3-.3 0-.7.1-1 .2-.6-.9-1.6-1.4-2.7-1.4-1.8 0-3.3 1.5-3.3 3.3 0 .5.1 1 .3 1.5.2.1.4.2.6.2zm2.4-3.8c.8 0 1.6.5 1.9 1.3.1.2.2.3.4.3.2.1.3 0 .5-.1.3-.2.6-.3.9-.3.9 0 1.6.6 1.7 1.4H4.5c-.1-.2-.1-.4-.1-.6 0-1.1.9-2 2.1-2zM29 7.7c-.3 0-.7.1-1 .2-.6-.9-1.6-1.4-2.7-1.4C23.5 6.5 22 8 22 9.8c0 .5.1 1 .3 1.5.1.2.3.3.5.3h8.5c.3 0 .6-.2.6-.5v-.3c.1-1.7-1.2-3.1-2.9-3.1zm-5.7 2.6c-.1-.2-.1-.4-.1-.6 0-1.1.9-2.1 2.1-2.1.8 0 1.6.5 1.9 1.3.1.2.2.3.4.3.2.1.3 0 .5-.1.3-.1.6-.2.9-.2.9 0 1.6.6 1.7 1.4h-7.4z"/></g></svg>