<svg xmlns="http://www.w3.org/2000/svg" viewBox="0 0 32 32"><style>.st0{fill:#2067d1}.st1{display:none}.st2{fill:#2067d1}.st2,.st3{display:inline}</style><g id="Layer_1"><path class="st0" d="M15.4 3.3c0 1.3-1 2.3-2.3 2.3s-2.3-1-2.3-2.3 1-2.3 2.3-2.3 2.3 1.1 2.3 2.3zm5.5 6.7c-1.2 0-2.1.9-2.1 2.1s.9 2.1 2.1 2.1 2.1-.9 2.1-2.1-.9-2.1-2.1-2.1z"/><path d="M13.1 32c-.4 0-.8-.4-.8-.8v-8c-1.7-.1-3.4-.4-4.7-.8-2.3-.8-2.8-1.9-2.8-2.7 0-.8.5-1.9 2.8-2.7.6-.2 1.2-.4 1.9-.5V12c0-2.2 1.6-4.1 3.6-4.1s3.6 1.8 3.6 4.1v4.4c.9.1 1.7.3 2.5.6.5.2.9.3 1.2.5v-2.1c-1.6-.3-2.8-1.6-2.8-3.3 0-1.8 1.5-3.3 3.3-3.3 1.6 0 2.9 1.1 3.2 2.5h2.2c.4 0 .8.4.8.8s-.3.9-.7.9h-.3v.3c0 .4-.4.8-.8.8h-1.7c-.4.6-1 1-1.7 1.3v4.4c0 .8-.5 1.9-2.8 2.7-1.4.5-3.3.8-5.3.8v7.2h1.6c.4 0 .8.4.8.8s-.4.8-.8.8h-2.2-.1c.1-.1 0-.1 0-.1zm.8-14.2v3.8c1.8 0 3.5-.3 4.7-.7 1.3-.4 1.7-.9 1.7-1.2s-.5-.7-1.7-1.2c-.6-.2-1.2-.4-1.9-.5v1.7c0 .4-.4.8-.8.8s-.8-.4-.8-.8v-1.9h-1.2zm-4.4.4c-.5.1-.9.2-1.3.4-1.3.4-1.7.9-1.7 1.2 0 .2.5.7 1.7 1.2 1.1.4 2.6.6 4.1.7v-3.8c-.4 0-.8.1-1.2.1v1.9c0 .4-.4.8-.8.8s-.8-.4-.8-.8v-1.7zm3.6-8.6c-1.1 0-2 1.1-2 2.5v4.2c.4 0 .8-.1 1.2-.1v-4.3c0-.4.4-.8.8-.8s.8.4.8.8v4.3c.4 0 .8 0 1.2.1V12c-.1-1.3-1-2.4-2-2.4zm7.8.8c-.9 0-1.7.8-1.7 1.7 0 .9.8 1.7 1.7 1.7.9 0 1.7-.8 1.7-1.7 0-.9-.7-1.7-1.7-1.7zm-7.8-3.7c-1.8 0-3.3-1.5-3.3-3.3S11.2 0 13.1 0c1.8 0 3.3 1.5 3.3 3.3s-1.5 3.4-3.3 3.4zm0-5.1c-.9 0-1.7.8-1.7 1.7S12.2 5 13.1 5c.9 0 1.7-.8 1.7-1.7s-.8-1.7-1.7-1.7z"/></g><g id="Layer_2" class="st1"><circle class="st2" cx="16.3" cy="16.2" r="15.6"/><path id="Football-ball_1_" class="st3" d="M16 0C7.2 0 0 7.2 0 16s7.2 16 16 16 16-7.2 16-16S24.8 0 16 0zm14.8 18.4l-1.9-3.2 1.3-3.9c.5 1.5.8 3.1.8 4.8 0 .7-.1 1.5-.2 2.3zM27 26.1h-.2l-4.8.8c0-.1 0-.1-.1-.2l-2.8-4.6 4.4-6.9h4.2c0 .1 0 .1.1.2l2.6 4.3c-.5 2.5-1.7 4.7-3.4 6.4zm-5 1.8l3.8-.6c-1.7 1.5-3.7 2.5-5.9 3.1l2.1-2.5zM6.3 4.6c2.5-2.1 5.8-3.5 9.3-3.5 0 .1.1.1.1.2l2.8 2.6L17.4 8l-7.1 2.7-.1-.1-4.4-2.4.5-3.6zm12.9-1.5l-2.1-2c2 .1 3.8.6 5.5 1.5l-3.4.5zM11 19.4l-.4-7.8 7.3-2.8 4.9 6.1-4.2 6.5-7.6-2zm18.7-9.6c-.1 0-.1 0 0 0l-1.6 4.5h-4.5L18.4 8l1.1-4 4.1-.7c.1 0 .2-.1.2-.1 2.6 1.6 4.6 3.9 5.9 6.6zM5.2 5.7l-.4 2.7-2.7 2C2.8 8.6 3.8 7 5.2 5.7zm-3.7 6.4s.1-.1 0 0l3.9-2.9 4.1 2.2.4 8.5L6 23.7l-.1.1-3.7-1.6C1.5 20.3 1 18.2 1 16c0-1.4.2-2.7.5-3.9zM3 23.5l2.7 1.2 2.1 3.9c-1.9-1.3-3.6-3-4.8-5.1zm6.4 6c0-.1 0-.1 0 0l-2.7-5.1s.1 0 .1-.1l4-4 7.3 1.9 3 4.9.1.1-2.7 3.4c-.9.3-1.7.4-2.5.4-2.4 0-4.6-.5-6.6-1.5z"/></g><g id="Layer_3" class="st1"><circle class="st2" cx="25.9" cy="24.9" r="5.8"/><path class="st3" d="M25.9 19c-3.3 0-6 2.7-6 6s2.7 6 6 6 6-2.7 6-6-2.7-6-6-6zm0 .6c2.2 0 4.1 1.3 5 3.3 0 1.1-.4 2.2-1 3 0-.1-.1-.2-.3-.2-.2 0-.3.1-.3.3v.5c-.2.1-.3.3-.5.4v-.2c0-.2-.1-.3-.3-.3-.2 0-.3.1-.3.3v.5c-.2.1-.3.2-.5.2v-.3c0-.2-.1-.3-.3-.3-.2 0-.3.1-.3.3v.4c-.2 0-.3.1-.5.1v-.3c0-.2-.1-.3-.3-.3-.2 0-.3.1-.3.3v.4h-.5v-.4c0-.2-.1-.3-.3-.3-.2 0-.3.1-.3.3v.3c-.2 0-.3-.1-.5-.1V27c0-.2-.1-.3-.3-.3-.2 0-.3.1-.3.3v.3c-.2-.1-.3-.2-.5-.3v-.5c0-.2-.1-.3-.3-.3-.2 0-.3.1-.3.3v.1c-.2-.1-.3-.3-.5-.4V26c0-.2-.1-.3-.3-.3-.1 0-.1 0-.2.1-.6-.8-1-1.9-1-3 1-1.9 2.9-3.2 5.2-3.2zm0 10.8c-3 0-5.4-2.4-5.4-5.4 0-.3 0-.6.1-.8.2.9.7 1.7 1.3 2.4v.5c0 .2.1.3.3.3.1 0 .3-.1.3-.3.2.1.3.3.5.4v.3c0 .2.1.3.3.3.1 0 .2-.1.3-.2.2.1.3.2.5.2v.2c0 .2.1.3.3.3.2 0 .3-.1.3-.3.2 0 .3.1.5.1v.2c0 .2.1.3.3.3s.3-.1.3-.3v-.1h.5v.1c0 .2.1.3.3.3.2 0 .3-.1.3-.3v-.2c.2 0 .3-.1.5-.1 0 .2.1.3.3.3s.3-.1.3-.3v-.2c.2-.1.3-.1.5-.2 0 .1.1.2.3.2.2 0 .3-.1.3-.3v-.2c.2-.1.4-.3.6-.4.1.1.1.1.2.1.2 0 .3-.1.3-.3v-.3c.7-.7 1.2-1.6 1.4-2.6 0 .3.1.5.1.8-.4 3.1-2.9 5.5-5.8 5.5zM32 4.8c0-.4-.2-.8-.4-1.1L28.3.4c-.6-.6-1.6-.6-2.2 0L19 7.5V3.1c0-.6-.4-1-.9-1h-2.7c-.5 0-.9.5-.9 1V12l-.8.8V3.1c0-.6-.4-1-.9-1h-2.7c-.5 0-.9.5-.9 1v14.1c-.3.6-.3 1.3.2 1.9l.5.5L8.6 21V3c0-.6-.4-1-.9-1H5c-.5 0-.9.5-.9 1v22.4l-2 2c-.2-.2-.5-.3-.8-.3-.3 0-.7.1-.9.4-.5.5-.5 1.3 0 1.8l2.2 2.2c.2.4.6.5.9.5s.7-.1.9-.4c.2-.2.4-.6.4-.9 0-.3-.1-.6-.3-.8l7.9-7.9.5.5c.6.6 1.6.6 2.2 0L31.6 5.9c.2-.3.4-.6.4-1.1zM15.1 3.1c0-.3.2-.5.3-.5h2.7c.1 0 .3.2.3.5v5l-3.3 3.3V3.1zm-4.9-.5h2.7c.1 0 .3.2.3.5v10.2l-3.3 3.3V3.1c0-.3.1-.5.3-.5zm-5.5.5c0-.3.2-.5.3-.5h2.7c.2 0 .3.2.3.5v18.5l-3.3 3.3V3.1zM4 31.2c-.1.1-.3.2-.5.2s-.4-.1-.5-.2L.8 29c-.1-.1-.2-.3-.2-.5s.1-.4.2-.5c.1-.1.3-.2.5-.2s.4.1.5.2L4 30.2c.1.1.2.3.2.5s0 .4-.2.5zM31.2 5.5L14.7 22c-.4.4-1 .4-1.4 0l-.7-.7c-.1-.1-.1-.1-.2-.1s-.1 0-.2.1l-8.1 8.1-1.6-1.6.5-.4.8.8c.1.1.1.1.2.1s.1 0 .2-.1.1-.3 0-.4l-.8-.8 7.3-7.3c.1-.1.1-.3 0-.4l-.7-.6c-.4-.4-.4-1 0-1.4L26.5.8c.4-.4 1-.4 1.4 0l3.3 3.3c.2.2.3.4.3.7-.1.3-.2.6-.3.7zM27 2.2L15.9 13.3c-.1.1-.1.3 0 .4.1.1.1.1.2.1s.1 0 .2-.1L27.4 2.5c.1-.1.1-.3 0-.4-.1-.1-.2-.1-.4.1zM5.5 3.9c-.2 0-.3.1-.3.3v15.1c0 .2.1.3.3.3.2 0 .3-.1.3-.3V4.2c0-.2-.2-.3-.3-.3z"/></g></svg>