<svg xmlns="http://www.w3.org/2000/svg" viewBox="0 0 32 32"><style>.st0{display:none}.st1{fill:#2067d1}.st1,.st2{display:inline}.st3{fill:#2067d1;stroke:#010101;stroke-width:.5;stroke-miterlimit:10}.st3,.st4,.st5{display:inline}.st4{stroke:#010101;stroke-width:.5;stroke-miterlimit:10;fill:none}.st5{fill:#010101}.st6{fill:#2067d1}.st7{fill:#010101}</style><g id="Layer_1" class="st0"><path class="st1" d="M15.4 3.3c0 1.3-1 2.3-2.3 2.3s-2.3-1-2.3-2.3 1-2.3 2.3-2.3 2.3 1.1 2.3 2.3zm5.5 6.7c-1.2 0-2.1.9-2.1 2.1s.9 2.1 2.1 2.1 2.1-.9 2.1-2.1-.9-2.1-2.1-2.1z"/><path class="st2" d="M13.1 32c-.4 0-.8-.4-.8-.8v-8c-1.7-.1-3.4-.4-4.7-.8-2.3-.8-2.8-1.9-2.8-2.7 0-.8.5-1.9 2.8-2.7.6-.2 1.2-.4 1.9-.5V12c0-2.2 1.6-4.1 3.6-4.1s3.6 1.8 3.6 4.1v4.4c.9.1 1.7.3 2.5.6.5.2.9.3 1.2.5v-2.1c-1.6-.3-2.8-1.6-2.8-3.3 0-1.8 1.5-3.3 3.3-3.3 1.6 0 2.9 1.1 3.2 2.5h2.2c.4 0 .8.4.8.8s-.3.9-.7.9h-.3v.3c0 .4-.4.8-.8.8h-1.7c-.4.6-1 1-1.7 1.3v4.4c0 .8-.5 1.9-2.8 2.7-1.4.5-3.3.8-5.3.8v7.2h1.6c.4 0 .8.4.8.8s-.4.8-.8.8h-2.2-.1c.1-.1 0-.1 0-.1zm.8-14.2v3.8c1.8 0 3.5-.3 4.7-.7 1.3-.4 1.7-.9 1.7-1.2s-.5-.7-1.7-1.2c-.6-.2-1.2-.4-1.9-.5v1.7c0 .4-.4.8-.8.8s-.8-.4-.8-.8v-1.9h-1.2zm-4.4.4c-.5.1-.9.2-1.3.4-1.3.4-1.7.9-1.7 1.2 0 .2.5.7 1.7 1.2 1.1.4 2.6.6 4.1.7v-3.8c-.4 0-.8.1-1.2.1v1.9c0 .4-.4.8-.8.8s-.8-.4-.8-.8v-1.7zm3.6-8.6c-1.1 0-2 1.1-2 2.5v4.2c.4 0 .8-.1 1.2-.1v-4.3c0-.4.4-.8.8-.8s.8.4.8.8v4.3c.4 0 .8 0 1.2.1V12c-.1-1.3-1-2.4-2-2.4zm7.8.8c-.9 0-1.7.8-1.7 1.7 0 .9.8 1.7 1.7 1.7.9 0 1.7-.8 1.7-1.7 0-.9-.7-1.7-1.7-1.7zm-7.8-3.7c-1.8 0-3.3-1.5-3.3-3.3S11.2 0 13.1 0c1.8 0 3.3 1.5 3.3 3.3s-1.5 3.4-3.3 3.4zm0-5.1c-.9 0-1.7.8-1.7 1.7S12.2 5 13.1 5c.9 0 1.7-.8 1.7-1.7s-.8-1.7-1.7-1.7z"/></g><g id="Layer_2" class="st0"><circle class="st1" cx="16.3" cy="16.2" r="15.6"/><path id="Football-ball_1_" class="st2" d="M16 0C7.2 0 0 7.2 0 16s7.2 16 16 16 16-7.2 16-16S24.8 0 16 0zm14.8 18.4l-1.9-3.2 1.3-3.9c.5 1.5.8 3.1.8 4.8 0 .7-.1 1.5-.2 2.3zM27 26.1h-.2l-4.8.8c0-.1 0-.1-.1-.2l-2.8-4.6 4.4-6.9h4.2c0 .1 0 .1.1.2l2.6 4.3c-.5 2.5-1.7 4.7-3.4 6.4zm-5 1.8l3.8-.6c-1.7 1.5-3.7 2.5-5.9 3.1l2.1-2.5zM6.3 4.6c2.5-2.1 5.8-3.5 9.3-3.5 0 .1.1.1.1.2l2.8 2.6L17.4 8l-7.1 2.7-.1-.1-4.4-2.4.5-3.6zm12.9-1.5l-2.1-2c2 .1 3.8.6 5.5 1.5l-3.4.5zM11 19.4l-.4-7.8 7.3-2.8 4.9 6.1-4.2 6.5-7.6-2zm18.7-9.6c-.1 0-.1 0 0 0l-1.6 4.5h-4.5L18.4 8l1.1-4 4.1-.7c.1 0 .2-.1.2-.1 2.6 1.6 4.6 3.9 5.9 6.6zM5.2 5.7l-.4 2.7-2.7 2C2.8 8.6 3.8 7 5.2 5.7zm-3.7 6.4s.1-.1 0 0l3.9-2.9 4.1 2.2.4 8.5L6 23.7l-.1.1-3.7-1.6C1.5 20.3 1 18.2 1 16c0-1.4.2-2.7.5-3.9zM3 23.5l2.7 1.2 2.1 3.9c-1.9-1.3-3.6-3-4.8-5.1zm6.4 6c0-.1 0-.1 0 0l-2.7-5.1s.1 0 .1-.1l4-4 7.3 1.9 3 4.9.1.1-2.7 3.4c-.9.3-1.7.4-2.5.4-2.4 0-4.6-.5-6.6-1.5z"/></g><g id="Layer_3" class="st0"><path class="st1" d="M31.6 24.9c0 3.2-2.6 5.8-5.8 5.8S20 28.1 20 24.9s2.6-5.8 5.8-5.8 5.8 2.6 5.8 5.8zM8.3 2.4h-4v19.8l.1 3.7 3.8-3.7V2.4zm5-.1H9.6v15.3l3.8-4V2.3zm5.4.1h-3.8v10l3.9-3.9V2.4z"/><path class="st2" d="M25.9 19c-3.3 0-6 2.7-6 6s2.7 6 6 6 6-2.7 6-6-2.7-6-6-6zm0 .6c2.2 0 4.1 1.3 5 3.3 0 1.1-.4 2.2-1 3 0-.1-.1-.2-.3-.2-.2 0-.3.1-.3.3v.5c-.2.1-.3.3-.5.4v-.2c0-.2-.1-.3-.3-.3-.2 0-.3.1-.3.3v.5c-.2.1-.3.2-.5.2v-.3c0-.2-.1-.3-.3-.3-.2 0-.3.1-.3.3v.4c-.2 0-.3.1-.5.1v-.3c0-.2-.1-.3-.3-.3-.2 0-.3.1-.3.3v.4h-.5v-.4c0-.2-.1-.3-.3-.3-.2 0-.3.1-.3.3v.3c-.2 0-.3-.1-.5-.1V27c0-.2-.1-.3-.3-.3-.2 0-.3.1-.3.3v.3c-.2-.1-.3-.2-.5-.3v-.5c0-.2-.1-.3-.3-.3-.2 0-.3.1-.3.3v.1c-.2-.1-.3-.3-.5-.4V26c0-.2-.1-.3-.3-.3-.1 0-.1 0-.2.1-.6-.8-1-1.9-1-3 1-1.9 2.9-3.2 5.2-3.2zm0 10.8c-3 0-5.4-2.4-5.4-5.4 0-.3 0-.6.1-.8.2.9.7 1.7 1.3 2.4v.5c0 .2.1.3.3.3.1 0 .3-.1.3-.3.2.1.3.3.5.4v.3c0 .2.1.3.3.3.1 0 .2-.1.3-.2.2.1.3.2.5.2v.2c0 .2.1.3.3.3.2 0 .3-.1.3-.3.2 0 .3.1.5.1v.2c0 .2.1.3.3.3s.3-.1.3-.3v-.1h.5v.1c0 .2.1.3.3.3.2 0 .3-.1.3-.3v-.2c.2 0 .3-.1.5-.1 0 .2.1.3.3.3s.3-.1.3-.3v-.2c.2-.1.3-.1.5-.2 0 .1.1.2.3.2.2 0 .3-.1.3-.3v-.2c.2-.1.4-.3.6-.4.1.1.1.1.2.1.2 0 .3-.1.3-.3v-.3c.7-.7 1.2-1.6 1.4-2.6 0 .3.1.5.1.8-.4 3.1-2.9 5.5-5.8 5.5zM32 4.8c0-.4-.2-.8-.4-1.1L28.3.4c-.6-.6-1.6-.6-2.2 0L19 7.5V3.1c0-.6-.4-1-.9-1h-2.7c-.5 0-.9.5-.9 1V12l-.8.8V3.1c0-.6-.4-1-.9-1h-2.7c-.5 0-.9.5-.9 1v14.1c-.3.6-.3 1.3.2 1.9l.5.5L8.6 21V3c0-.6-.4-1-.9-1H5c-.5 0-.9.5-.9 1v22.4l-2 2c-.2-.2-.5-.3-.8-.3-.3 0-.7.1-.9.4-.5.5-.5 1.3 0 1.8l2.2 2.2c.2.4.6.5.9.5s.7-.1.9-.4c.2-.2.4-.6.4-.9 0-.3-.1-.6-.3-.8l7.9-7.9.5.5c.6.6 1.6.6 2.2 0L31.6 5.9c.2-.3.4-.6.4-1.1zM15.1 3.1c0-.3.2-.5.3-.5h2.7c.1 0 .3.2.3.5v5l-3.3 3.3V3.1zm-4.9-.5h2.7c.1 0 .3.2.3.5v10.2l-3.3 3.3V3.1c0-.3.1-.5.3-.5zm-5.5.5c0-.3.2-.5.3-.5h2.7c.2 0 .3.2.3.5v18.5l-3.3 3.3V3.1zM4 31.2c-.1.1-.3.2-.5.2s-.4-.1-.5-.2L.8 29c-.1-.1-.2-.3-.2-.5s.1-.4.2-.5c.1-.1.3-.2.5-.2s.4.1.5.2L4 30.2c.1.1.2.3.2.5s0 .4-.2.5zM31.2 5.5L14.7 22c-.4.4-1 .4-1.4 0l-.7-.7c-.1-.1-.1-.1-.2-.1s-.1 0-.2.1l-8.1 8.1-1.6-1.6.5-.4.8.8c.1.1.1.1.2.1s.1 0 .2-.1.1-.3 0-.4l-.8-.8 7.3-7.3c.1-.1.1-.3 0-.4l-.7-.6c-.4-.4-.4-1 0-1.4L26.5.8c.4-.4 1-.4 1.4 0l3.3 3.3c.2.2.3.4.3.7-.1.3-.2.6-.3.7zM27 2.2L15.9 13.3c-.1.1-.1.3 0 .4.1.1.1.1.2.1s.1 0 .2-.1L27.4 2.5c.1-.1.1-.3 0-.4-.1-.1-.2-.1-.4.1zM5.5 3.9c-.2 0-.3.1-.3.3v15.1c0 .2.1.3.3.3.2 0 .3-.1.3-.3V4.2c0-.2-.2-.3-.3-.3z"/></g><g id="Layer_4" class="st0"><circle class="st1" cx="16" cy="15.8" r="15.4"/><path class="st2" d="M16 0C7.2 0 0 7.2 0 16s7.2 16 16 16 16-7.2 16-16S24.8 0 16 0zm0 1.2c1 0 1.9.1 2.9.3-6.2 1.6-10.8 5.2-14.6 9.4-.6-.4-1.1-.8-1.7-1.2C5 4.6 10.1 1.2 16 1.2zm5.3.9c1.4.5 2.7 1.3 3.9 2.2-5.3 1.4-10.4 4.8-14.9 9.3-1.7-.5-3.3-1.2-4.9-2.1 4-4.4 9-8.2 15.9-9.4zm4.9 3.2c.8.8 1.6 1.7 2.2 2.7-5.1 1.5-9.3 4.1-12.6 7.4-1.5-.5-2.9-.9-4.3-1.3 4.5-4.5 9.6-7.7 14.7-8.8zM29.1 9c1.1 2.1 1.8 4.5 1.8 7 0 3.7-1.3 7-3.5 9.6 1.5-5.8.1-10.5-.9-15.7.7-.3 1.6-.6 2.6-.9zm-3.9 1.3c1.2 5.7 2.6 10.6.3 17-1.2 1-2.6 1.8-4.1 2.4 1.4-5.2 1.4-11.1-.3-17.3 1.3-.7 2.7-1.4 4.1-2.1zm-23.1.5c4.4 3.5 8.9 4.2 13.3 5.7.1 1.6.1 3.1.1 4.6-6-1.6-10.5-3.8-14.1-7.6.2-1 .4-1.9.7-2.7zm18 2.4c1.6 6.1 1.5 11.9-.1 17-1.3.4-2.6.6-4 .6h-.8c1.9-4.7 1.7-9.7 1.4-14.6 1.1-1 2.3-2 3.5-3zM1.2 15c3.7 3.7 8.3 5.8 14.3 7.3 0 1.7-.2 3.3-.5 4.9-4-.8-9-2.1-13.4-7.4-.3-1.2-.5-2.5-.5-3.8.1-.3.1-.7.1-1zm1.5 7.6c4.1 3.8 8.5 5 12 5.7-.2.8-.5 1.6-.8 2.4-4.9-.7-9-3.8-11.2-8.1z"/></g><g id="Layer_5" class="st0"><ellipse class="st1" cx="16.1" cy="12.3" rx="1.9" ry="2.4"/><path id="XMLID_487_" class="st2" d="M2.7 16.8c0 .4-.3.7-.7.7H.7c-.4 0-.7-.3-.7-.7s.3-.7.7-.7H2c.4 0 .7.3.7.7zM9.5 23c0 .2 0 .4.2.5s.3.2.5.2h1.4c.4 0 .7-.3.7-.7 0-.4-.3-.7-.7-.7h-.5c.6-1.8 2.4-3.3 4.9-3.9 2.5.6 4.4 2.1 4.9 3.9h-.5c-.4 0-.7.3-.7.7 0 .4.3.7.7.7h1.4c.2 0 .4-.1.5-.2.1-.1.2-.3.2-.5-.1-1.4-.8-2.7-2-3.8-1.1-1-2.6-1.8-4.3-2.2h-.3c-1.7.4-3.2 1.1-4.3 2.2-1.3 1.1-1.9 2.4-2.1 3.8zM25.9 7.6c.2 0 .4-.1.5-.2l.9-.9c.3-.3.3-.7 0-1-.3-.3-.7-.3-1 0l-.9.9c-.3.3-.3.7 0 1 .1.1.3.2.5.2zM16 3.5c.4 0 .7-.3.7-.7V1.5c0-.4-.3-.7-.7-.7s-.7.3-.7.7v1.3c0 .4.3.7.7.7zM5.6 7.4c.1.1.3.2.5.2s.4-.1.5-.2c.3-.3.3-.7 0-1l-.9-.9c-.3-.3-.7-.3-1 0-.3.3-.3.7 0 1l.9.9zm8.8 21c-.4 0-.7.3-.7.7v.7H8.5c-.9 0-1.7-.8-1.7-1.7 0-.9.8-1.7 1.7-1.7h5.1c.4 0 .7-.3.7-.7 0-.4-.3-.7-.7-.7H8.5c-1.7 0-3.1 1.4-3.1 3.1 0 1.7 1.4 3.1 3.1 3.1h5.9c.4 0 .7-.3.7-.7v-1.4c0-.4-.3-.7-.7-.7zm16.9-12.3H30c-.4 0-.7.3-.7.7s.3.7.7.7h1.3c.4 0 .7-.3.7-.7s-.3-.7-.7-.7zM16 5.3C9.6 5.3 4.3 10.5 4.3 17c0 2.2.6 4.4 1.8 6.3.1.2.4.3.6.3.1 0 .3 0 .4-.1.3-.2.4-.7.2-1-1.1-1.6-1.6-3.6-1.6-5.5 0-5.6 4.6-10.2 10.2-10.2S26.1 11.4 26.1 17c0 2-.6 3.9-1.6 5.5-.2.3-.1.8.2 1 .3.2.8.1 1-.2 1.2-1.9 1.8-4.1 1.8-6.3.2-6.5-5.1-11.7-11.5-11.7zm-.2 10.3c-1.4-.5-2.4-1.8-2.4-3.3s1-2.9 2.4-3.3h.4c1.4.5 2.4 1.8 2.4 3.3 0 1.5-1 2.9-2.4 3.3H16h-.2zm.2-1.4c.7-.3 1.2-1.1 1.2-1.9 0-.8-.5-1.5-1.2-1.9-.7.3-1.2 1.1-1.2 1.9 0 .8.5 1.5 1.2 1.9zM23.5 25h-5.1c-.4 0-.7.3-.7.7s.3.7.7.7h5.1c.9 0 1.7.8 1.7 1.7s-.8 1.7-1.7 1.7h-5.1v-.7c0-.4-.3-.7-.7-.7s-.7.3-.7.7v1.4c0 .4.3.7.7.7h5.9c1.7 0 3.1-1.4 3.1-3.1S25.3 25 23.5 25zM16 19.9c-.4 0-.7.3-.7.7v5.1c0 .4.3.7.7.7.4 0 .7-.3.7-.7v-5.1c0-.3-.3-.7-.7-.7z"/></g><g id="Layer_6" class="st0"><path class="st1" d="M3.3 3.5l3.8-2.4L9.9.6l2.8.3 1.8.9 1.5-.6 3.3-.7 1.8.1 1.7.4 1.7 1.1 1.4 1.3 1.3 1.4 1.3 2.1.5 1.8.4 2.3-.2 3.2-1.1 2.9-.9 1.8-1.6 1.8-1.6 1.1-1.7.8-2.3.3-2.8-.1-2.8-1.1-2.2 1.2-2.8-.1-3.8-1-2.3-1.9-1.9-2.7-1.2-3.5v-2L1 7.8l.8-2.3 1.5-2zm25.3 21.7c-1.6 0-2.9 1.3-2.9 2.9S27 31 28.6 31s2.9-1.3 2.9-2.9-1.3-2.9-2.9-2.9z"/><path class="st2" d="M29.9 11.7C29.9 5.3 25.2 0 19.5 0c-1.6 0-3.2.4-4.5 1.2C13.5.4 12 0 10.4 0 4.7 0 0 5.3 0 11.7 0 17 3.2 21.5 7.5 23v7c0 1.1.9 2 2 2h1.9c1.1 0 2-.9 2-2v-7c.5-.2 1.1-.4 1.6-.7.5.3 1.1.5 1.6.7v7c0 1.1.9 2 2 2h1.9c1.1 0 2-.9 2-2v-7c4.2-1.4 7.4-5.9 7.4-11.3zm-8.2 10.4c-.3.1-.6.1-.9.2H19.5h-1.4c-.3-.1-.6-.1-.9-.2-.7-.2-1.4-.5-2.1-.9-.1-.1-.2-.2-.3-.2-.1-.1-.2-.2-.3-.2-.1-.1-.2-.1-.3-.2-.2-.2-.4-.3-.6-.5l-.1-.1c-.2-.2-.4-.4-.5-.6l-.1-.1h13.3c-1.3 1.3-2.8 2.3-4.5 2.8zm7.1-10.4c0 2.4-.7 4.6-1.9 6.4H12c-.1-.1-.2-.3-.3-.4-.2-.3-.3-.6-.4-.8-.1-.3-.3-.6-.4-.9l-.3-.9v-.2c-.1-.3-.2-.6-.2-.9v-.1c-.1-.3-.1-.6-.1-.9v-.2-1-1-.2c0-.3.1-.6.1-.9v-.1c.1-.3.1-.6.2-.9v-.2l.3-.9c.1-.3.2-.6.4-.9.1-.3.3-.6.4-.8.3-.5.7-1 1.1-1.5l.1-.1c.2-.2.4-.4.5-.6l.1-.1c.2-.2.4-.3.6-.5.1-.1.2-.2.3-.2.1-.1.2-.2.3-.2.1-.1.2-.2.4-.2 1.3-.8 2.8-1.2 4.3-1.2 5.2-.2 9.4 4.6 9.4 10.4zM10.4 1.1c1.2 0 2.4.3 3.5.8-.1.1-.3.2-.4.3l-.1.1c-.1.1-.3.2-.4.4l-.3.3c-.1 0-.2 0-.3.1l-.3.3-.1.1c-.5.5-.9 1.1-1.2 1.7L9.9 7c0 .1 0 .1-.1.2 0 .1-.1.2-.1.4 0 .1-.1.2-.1.3 0 .1-.1.2-.1.3 0 .1-.1.3-.1.4 0 .1 0 .2-.1.3 0 .2-.1.4-.1.6v.2c0 .2 0 .3-.1.5v3.2c0 .2 0 .3.1.5v.2c0 .2.1.4.1.6 0 .1 0 .2.1.3 0 .1.1.3.1.4 0 .1.1.2.1.3 0 .1.1.2.1.3 0 .1.1.2.1.4 0 .1 0 .1.1.2.2.6.5 1.2.8 1.7H3c-1.2-1.8-1.9-4-1.9-6.4 0-6 4.2-10.8 9.3-10.8zm1 29.8h-2c-.5 0-.9-.4-.9-.9v-2.8h3.7V30c.1.5-.3.9-.8.9zm.9-4.8H8.5v-2.9c.6.1 1.2.2 1.9.2h.9c.3 0 .6-.1.9-.1v2.8zm1.6-4.5c-.3.1-.6.2-.8.3H13c-.1 0-.2.1-.3.1-.3.1-.6.2-.9.2H9.1c-.3-.1-.6-.1-.9-.2-1.7-.5-3.2-1.5-4.4-2.9h7.7c.2.3.4.5.6.8l.1.1.3.3.2.2.3.3.4.4.1.1c.1.1.2.2.4.3zm6.5 9.3h-1.9c-.5 0-.9-.4-.9-.9v-2.8h3.7V30c0 .5-.4.9-.9.9zm.9-4.8h-3.7v-2.9c.6.1 1.2.2 1.9.2s1.3-.1 1.9-.2v2.9zm7.2-1.6c-1.9 0-3.5 1.6-3.5 3.5s1.6 3.5 3.5 3.5S32 29.9 32 28s-1.6-3.5-3.5-3.5zm0 5.9c-1.3 0-2.4-1.1-2.4-2.4s1.1-2.4 2.4-2.4c1.3 0 2.4 1.1 2.4 2.4s-1 2.4-2.4 2.4z"/></g><g id="Layer_7" class="st0"><circle class="st1" cx="12.4" cy="17.2" r="8.1"/><path id="Billiard-ball" class="st2" d="M12.7 12.6c-1.2-.3-2.4.4-2.8 1.6-.2.7 0 1.4.4 1.9-.9.3-1.6 1-1.9 1.9-.4 1.5.5 3 1.9 3.4.2.1.5.1.7.1 1.2 0 2.3-.8 2.7-2 .3-1 0-2-.7-2.7.6-.3 1.1-.8 1.2-1.5.2-.6.1-1.2-.2-1.7-.2-.4-.7-.8-1.3-1zm.1 6.6c-.3.9-1.2 1.5-2.1 1.2-.9-.3-1.5-1.2-1.2-2.1.2-.8.9-1.3 1.7-1.3.1 0 .3 0 .5.1.8.3 1.4 1.2 1.1 2.1zm.5-4.1c-.2.7-.9 1.1-1.5.9-.7-.2-1.1-.9-.9-1.5.1-.6.7-.9 1.2-.9h.3c.3.1.6.3.8.6.2.3.2.6.1.9zm1.3-6c-2.2-.6-4.4-.3-6.3.8-2 1.1-3.4 3-4 5.2-1.2 4.5 1.5 9.2 5.9 10.4.7.2 1.5.3 2.2.3 1.4 0 2.9-.4 4.2-1.1 2-1.1 3.4-3 4-5.2 1.2-4.5-1.5-9.2-6-10.4zm5 10.1c-.5 1.9-1.8 3.6-3.5 4.6-1.7 1-3.7 1.2-5.6.7-3.9-1.1-6.3-5.2-5.2-9.2.5-1.9 1.8-3.6 3.5-4.6 1.1-.7 2.4-1 3.7-1 .6 0 1.3.1 1.9.3 3.9 1.1 6.3 5.2 5.2 9.2zM16 0C7.2 0 0 7.2 0 16s7.2 16 16 16 16-7.2 16-16S24.8 0 16 0zm0 31C7.7 31 1 24.3 1 16S7.7 1 16 1s15 6.7 15 15-6.7 15-15 15zm11.3-19.4c-1.2-3.1-2.9-6.1-7.3-7.3-.3-.1-.5.1-.6.3-.1.3.1.5.3.6 3.7 1.1 5.4 3.4 6.7 6.7.1.2.3.3.5.3h.2c.2 0 .3-.3.2-.6z"/></g><g id="Layer_8" class="st0"><circle class="st1" cx="24.5" cy="26.9" r="3.4"/><circle class="st1" cx="7.5" cy="27" r="3.4"/><path id="Roller-skates" class="st2" d="M31.9 15.9c-.6-3.4-3.5-5.1-8.7-5.1h-2.5c-2.2 0-4.3-1.2-5.5-3.1l-3.9-6.5-.5-.2H.5l-.5.5v14.1c0 1.7.7 3.3 1.9 4.6C3.2 21.3 4.8 22 6.6 22h21.9c1.1 0 2-.4 2.6-1.1 1.2-1.5.9-4 .8-5zM2.6 19.4c-1-1-1.6-2.4-1.6-3.9V2h9.6l2.1 3.6H9.5c-.3-.1-.5.2-.5.4 0 .3.2.5.5.5h3.8l.9 1.6h-3.4c-.3 0-.5.2-.5.5s.2.5.5.5h4.1c1.4 1.7 3.5 2.7 5.7 2.7h.8V21H6.6c-1.5 0-2.9-.6-4-1.6zm27.7.9c-.4.5-1 .7-1.8.7h-5.9v-9.2h.6c4.7 0 7.3 1.4 7.7 4.3.1.6.4 3-.6 4.2zM7.5 23c-2.2 0-4 1.8-4 4s1.8 4 4 4 4-1.8 4-4-1.8-4-4-4zm0 7c-1.6 0-3-1.3-3-3s1.3-3 3-3c1.6 0 3 1.3 3 3 0 1.6-1.4 3-3 3zm17-7c-2.2 0-4 1.8-4 4s1.8 4 4 4 4-1.8 4-4-1.8-4-4-4zm0 7c-1.6 0-3-1.3-3-3s1.3-3 3-3c1.6 0 3 1.3 3 3 0 1.6-1.4 3-3 3z"/></g><g id="Layer_9" class="st0"><circle class="st1" cx="16.2" cy="13.2" r="12.7"/><g class="st2"><path d="M29.1 13.1C29.1 5.9 23.2 0 16 0S2.9 5.9 2.9 13.1c0 5.9 3.9 10.9 9.3 12.5 1.5 1.1 3.2 3 3.2 5.9 0 .3.2.5.5.5s.5-.2.5-.5c0-3 2.1-5 3.9-6.1 5.2-1.9 8.8-6.7 8.8-12.3zM17.9 26c-.7.7-1.4 1.6-1.9 2.7-.4-1.1-1-1.9-1.7-2.7h.1c.2 0 .5.1.7.1H17c.4 0 .6-.1.9-.1zm2-1.6c-.2.1-.5.2-.8.2H19c-.3.1-.6.1-.9.2H18c-.4.2-1 .2-1.6.3h-.1c-.6 0-1.2 0-1.8-.1-.6-.1-1.2-.2-1.8-.4-5-1.4-8.7-6.1-8.7-11.5 0-6.6 5.4-12 12-12s12 5.4 12 12c0 5.2-3.4 9.7-8.1 11.3z"/><path d="M21.3 8.4c0-.3-.2-.5-.5-.5-.8 0-1.4-.6-1.4-1.4 0-.3-.2-.5-.5-.5s-.5.2-.5.5c0 1.4 1.1 2.5 2.5 2.5.2-.1.4-.3.4-.6zM22.2 12.3c-.4 0-.7-.2-1-.5s-.4-.6-.4-1c0-.3-.2-.5-.5-.6-.3 0-.5.2-.6.5 0 .7.2 1.3.7 1.8.5.5 1.1.8 1.7.8.3 0 .5-.2.5-.5.1-.3-.1-.5-.4-.5zM27 14.3c-.4 0-.7-.2-1-.5-.3-.3-.4-.6-.4-1 0-.3-.2-.5-.5-.6-.3 0-.5.2-.6.5 0 .7.2 1.3.7 1.8.5.5 1.1.8 1.7.8.3 0 .5-.2.5-.5.1-.2-.1-.5-.4-.5zM25.4 10.1c.3 0 .5-.2.5-.5s-.2-.5-.5-.6c-.4 0-.7-.2-1-.5-.3-.2-.4-.5-.4-.9 0-.3-.2-.6-.5-.6s-.5.2-.6.5c0 .7.2 1.3.7 1.8.5.5 1.1.8 1.8.8-.1 0 0 0 0 0zM22.4 4.4c-.8 0-1.4-.6-1.4-1.4 0-.3-.2-.5-.5-.5s-.5.2-.5.5c0 1.4 1.1 2.5 2.5 2.5.3 0 .5-.2.5-.5-.1-.3-.3-.6-.6-.6z"/></g></g><g id="Layer_10" class="st0"><path class="st1" d="M15.8 8.4h5.8l.8.3.3 1.8-.1 3.1.2 3.1 1.1.3.9.1.8.9-.1.9s-.1.8-.4.8c-.3 0-1.1.1-1.1.1l-.4.3-.6 2.2-.2.5 1.4.1 2.3-.4 2.9-.7 1-.8V7.8L28.6 6 24 2.8 19.2 1 15.8.7l-3 .3-3.3.8-1.8 1-1.6 1L4.2 5 2.4 6.4 1.3 7.5v13.7l1.1.5 2.4.5 2.3.6 1.9.1.6-1.3V20l-1.2-.4-1.7.1-.6-.6V17.4l1-.5h2l.1-1-.1-1v-1.3L9 11.2v-2l.3-.6h1.6l4.9-.2z"/><path class="st2" d="M30.4 6.4l-3.5-2.7c-6.4-4.9-15.3-4.9-21.7 0L1.6 6.4c-.5.4-.8 1-.8 1.6v13.4c0 .3.2.5.4.5L6 23.2c1 .2 2 .4 3 .4h.3l1.1 7.9v.1c0 .1.1.1.1.2l.1.1h.4c.1 0 .1-.1.1-.1l2.4-2.3 2.5 2.2s.1 0 .1.1h.5s.1 0 .1-.1l2.2-1.9 2 1.9.1.1c.1.1.1.1.2.1h.4c.1 0 .1-.1.1-.1s.1-.1.1-.2v-.1l1.1-7.9h.1c1.1 0 2.2-.2 3.2-.5l4.1-1.2c.2-.1.4-.3.4-.5V8c.5-.6.2-1.2-.3-1.6zm-8.2 9.9H9.8V9.2c0-.1.1-.2.2-.2h12c.1 0 .2.1.2.2v7.1zm1.1 1.1h.8c.5 0 .8.4.8.8 0 .5-.4.9-.8.9H7.9c-.5 0-.8-.4-.8-.9s.4-.8.8-.8h15.4zM19 28.2l-1.9-1.8 2.7-2.5 1.9 1.7-2.7 2.6zm-2.7-1.1l1.9 1.8-1.6 1.6-1.9-1.8 1.6-1.6zm-2.6.9l-2.8-2.5 1.9-1.7 2.7 2.5-1.8 1.7zm2.6-2.4l-2.6-2.5 2.6-2.4 2.6 2.4-2.6 2.5zm1.2-5.4h4.4l-2.2 2.1-2.2-2.1zm-4.7 2.1l-2.2-2.1H15l-2.2 2.1zM10 21.2l2 1.8-1.5 1.4-.2-1.4-.3-1.8zm2.8 7.6l-1.5 1.5-.4-3.3 1.9 1.8zm8.4 1.5L19.8 29l1.9-1.8-.5 3.1zm.9-5.9L20.6 23l1.9-1.9-.3 1.7-.1 1.6zm7.9-3.5L26.3 22c-.9.3-1.9.4-2.8.4l.3-2.2h.4c1.1 0 2-.9 2-2s-.9-1.9-2-1.9h-.8V9.2c0-.7-.6-1.3-1.3-1.3H10c-.7 0-1.3.6-1.3 1.3v7.1h-.8c-1.1 0-2 .9-2 1.9 0 1.1.9 2 2 2h.9l.3 2.2H9c-.9 0-1.8-.1-2.6-.4L2 20.9V8c0-.3.1-.5.3-.6l3.5-2.7c6-4.6 14.4-4.6 20.4 0l3.5 2.7c.2.1.3.3.3.6v12.9z"/></g><g id="Layer_11" class="st0"><path class="st1" d="M22.2 25.3H10c-3 0-5.5-2.5-5.5-5.5S7 14.3 10 14.3h12.2c3 0 5.5 2.5 5.5 5.5-.1 3-2.5 5.5-5.5 5.5z"/><path class="st2" d="M21.5 26h-11c-3.4 0-6.1-2.5-6.5-5.6H1.3c-.4 0-.7-.3-.7-.7 0-.4.3-.7.7-.7H2V12.1H.7c-.3 0-.5-.2-.6-.4-.1-.3 0-.5.2-.7C3.7 7.9 9.6 6 16 6s12.3 1.8 15.8 4.9c.2.2.3.5.2.7-.1.3-.3.4-.6.4h-1.3V18.9h.6c.4 0 .7.3.7.7 0 .4-.3.7-.7.7H28c-.3 3.2-3.1 5.7-6.5 5.7zm-11-11.2c-2.9 0-5.2 2.2-5.2 4.9s2.3 4.9 5.2 4.9h11.1c2.9 0 5.2-2.2 5.2-4.9s-2.3-4.9-5.2-4.9H10.5zM28 19.1h.7V12.2H3.2V19.1H4c.3-3.1 3.1-5.6 6.5-5.6h11.1c3.3 0 6.1 2.4 6.4 5.6zM3.2 10.8h25.5v-.4c-3.3-1.9-7.9-3-12.8-3s-9.5 1.1-12.8 3l.1.4zm10.4 11.6c-.6 0-1.3-.3-1.8-.7-.3-.3-.6-.4-1-.4-.2 0-.4.1-.6.3-.2.3-.6.3-.9.1-.3-.2-.3-.6-.1-.9.4-.5.9-.7 1.5-.8.7-.1 1.4.2 2 .7.2.2.6.4.9.3.2 0 .4-.1.6-.3.4-.5.9-.7 1.5-.8.7-.1 1.4.2 2 .7.3.2.3.7 0 .9-.3.3-.7.3-.9 0-.3-.3-.6-.4-1-.4-.2 0-.4.1-.6.3-.4.5-.9.7-1.5.8 0 .2 0 .2-.1.2zm5-2.8c-.6 0-1.3-.3-1.8-.7-.3-.3-.6-.4-1-.4-.2 0-.4.1-.6.3-.4.5-.9.7-1.5.8-.7.1-1.4-.2-1.9-.7-.3-.2-.3-.7 0-.9.2-.3.7-.3.9 0 .2.2.6.4.9.3.2 0 .4-.1.6-.3.4-.5.9-.7 1.5-.8.7-.1 1.4.2 2 .7.2.2.6.4.9.3.2 0 .4-.1.6-.3.4-.5.9-.7 1.5-.8.7-.1 1.4.2 2 .7.3.2.3.7 0 .9-.2.3-.7.3-.9 0-.3-.3-.6-.4-1-.4-.2 0-.4.1-.6.3-.4.5-.9.7-1.5.8 0 .2 0 .2-.1.2z"/></g><g id="Layer_12" class="st0"><ellipse class="st1" cx="16.2" cy="24.5" rx="13.8" ry="2.6"/><path id="XMLID_47_" class="st2" d="M16.3 18.8c2-.8 1.5-3.9 1.4-4.5-.1-.6-.8-3.4-.1-4.3-2 .7-1.5 3.7-1.4 4.7.1 1.3.8 3 .1 4.1zm7.4 1.2c2-.8 1.5-3.9 1.4-4.5-.1-.6-.8-3.4-.1-4.3-2 .7-1.5 3.7-1.4 4.7.1 1.3.8 3 .1 4.1zm-7.7.6c-.8 0-2.5 0-4.4.1V14c0-1.9-1.5-3.4-3.4-3.4-.6 0-1.1.2-1.6.4.6.5 1.1 1.1 1.4 1.7h.2c.7 0 1.3.6 1.3 1.3v1.7l-2.6.4V15c0-1.9-1.5-3.4-3.4-3.4-2-.1-3.5 1.5-3.5 3.4v2c0 .5.5 1 1.1 1 .6 0 1.1-.5 1.1-1.1v-2c0-.7.6-1.3 1.3-1.3.7 0 1.3.6 1.3 1.3v6.6c-2.7.6-4.7 1.5-4.7 3 0 3.8 13.3 4 16 4 2.7 0 16-.2 16-4S18.7 20.6 16 20.6zm-9.2-2.3l2.6-.4v3c-.9.1-1.7.2-2.6.3v-2.9zm9.2 8.1c-8.8 0-12.9-.8-12.9-1.8s4.3-1.8 12.9-1.8c8.8 0 12.9.8 12.9 1.8 0 .9-4.5 1.8-12.9 1.8zm4.5-14.1c2-.8 1.5-3.9 1.4-4.5-.1-.6-.8-3.4-.1-4.3-2 .7-1.5 3.7-1.4 4.7.1 1.2.8 3 .1 4.1z"/></g><g id="Layer_13" class="st0"><circle class="st1" cx="7.8" cy="23.8" r="5.3"/><path class="st2" d="M12.4 27.3c0-.1.1-.1.1-.2s.1-.1.1-.2c.1-.1.1-.2.2-.3 0 0 0-.1.1-.1.4-.8.7-1.7.7-2.7 0-.9-.2-1.9-.7-2.7 0 0 0-.1-.1-.1-.1-.1-.1-.2-.2-.3 0-.1-.1-.1-.1-.2s-.1-.1-.1-.2c-.1-.1-.1-.2-.2-.3l-.1-.1-.3-.3c-1-1-2.4-1.6-4-1.6s-2.9.6-4 1.6l-.3.3-.1.1c-.1.1-.2.2-.2.3 0 .1-.1.1-.1.2s-.1.1-.1.2c-.1.1-.1.2-.2.3 0 0 0 .1-.1.1-.4.8-.7 1.7-.7 2.7 0 .9.2 1.9.7 2.7 0 0 0 .1.1.1.1.1.1.2.2.3 0 .1.1.1.1.2s.1.1.1.2c.1.1.1.2.2.3l.1.1.3.3c1 1 2.4 1.6 4 1.6s2.9-.6 4-1.6l.3-.3.1-.1c0-.1.1-.2.2-.3zm0-3v.1c0 .1 0 .2-.1.3v.1c0 .1-.1.2-.1.3v.1c0 .1-.1.2-.1.3v.1c0 .1-.1.2-.1.3 0 0 0 .1-.1.1 0 .1-.1.2-.1.2l-.1.1c0 .1-.1.1-.1.2l-.2.2c-.7-.8-1.1-1.9-1.1-3s.4-2.2 1.1-3l.2.2c0 .1.1.1.1.2l.1.1c0 .1.1.2.1.2s0 .1.1.1c0 .1.1.2.1.3v.1c0 .1.1.2.1.3v.1c0 .1.1.2.1.3v.1c0 .1 0 .2.1.3V24.3zm-8.3 2.5s-.1-.1-.1-.2-.1-.1-.1-.2l-.1-.1c0-.1-.1-.2-.1-.2s0-.1-.1-.1c0-.1-.1-.2-.1-.3v-.1c0-.1-.1-.2-.1-.3v-.1c0-.1-.1-.2-.1-.3v-.1c0-.1 0-.2-.1-.3v-.1-.5-.5-.1c0-.1 0-.2.1-.3v-.1c0-.1.1-.2.1-.3v-.1c0-.1.1-.2.1-.3v-.1c0-.1.1-.2.1-.3 0 0 0-.1.1-.1 0-.1.1-.2.1-.2l.1-.1c0-.3 0-.4.1-.4l.2-.2c.7.8 1.1 1.9 1.1 3s-.5 2.2-1.2 3zm.8.8c.9-1.1 1.4-2.4 1.4-3.8s-.5-2.7-1.4-3.8c.8-.6 1.7-.9 2.8-.9s2 .3 2.8.9c-.9 1.1-1.4 2.4-1.4 3.8s.5 2.7 1.4 3.8c-.8.6-1.7.9-2.8.9s-2-.3-2.8-.9zm26.3-2.5c-.9-.9-2.3-.9-3.1 0l-.2.2L8.1 1.8C6.8.4 4.8-.3 3 .1c-.7.2-1.3.5-1.7 1C.5 1.9.1 2.9.2 4.3.2 5.7.9 7 2 8l23.4 19.8-.5.5c-.9.9-.9 2.3 0 3.1.4.4 1 .6 1.6.6.6 0 1.1-.2 1.6-.6l3.1-3.1c.9-.9.9-2.3 0-3.2zM1.3 4.2c0-1 .2-1.8.8-2.4.3-.3.7-.5 1.2-.7.3-.1.6-.1.9-.1 1.1 0 2.3.5 3.1 1.5L17 14.1l-2.8 2.8L2.7 7.1c-.9-.7-1.4-1.8-1.4-2.9zm13.8 13.4l2.7-2.6 9.3 11-.9 1-11.1-9.4zm15.3 9.8l-3.1 3.1c-.4.4-1.1.4-1.6 0-.4-.4-.4-1.1 0-1.6l.8-.8s.1 0 .1-.1l1.7-1.7s0-.1.1-.1l.5-.5c.2-.2.5-.3.8-.3.3 0 .6.1.8.3.3.6.3 1.3-.1 1.7z"/></g><g id="Layer_14" class="st0"><path class="st1" d="M12 30.6l-4.4.8-4.7-.9-1.2-.8-.9-2.4-.1-3.5.3-3.3.9-2.4 11.6 11.7-1.5.8zm5.8-28.9L29.7 14l.7-.8.6-3.2.3-2.1V4.6l-.7-2-1.4-1.3L25 .6l-3 .3-4.2.8z"/><path class="st2" d="M30.4 1.6c-1-1-3-1.6-5.6-1.6-4.7 0-12 1.9-17.5 7.4-1.8 1.8-3.4 4-4.6 6.4C1.6 15.9.8 18.3.4 20.6c-.8 4.4-.4 8.3 1.2 9.8 1 1 3 1.6 5.6 1.6 4.7 0 12-1.9 17.5-7.4 1.8-1.8 3.4-4 4.6-6.4 1.1-2.1 1.9-4.5 2.3-6.8.8-4.4.4-8.3-1.2-9.8zM7.1 30.7c-2.2 0-3.9-.4-4.6-1.2-.8-.8-1.4-3.1-1.1-6.3L3.2 25l1.9 1.9L7 28.8l1.8 1.8c-.6 0-1.1.1-1.7.1zm3.4-.3l-.2-.2c.3-.3.3-.7 0-.9-.3-.3-.7-.3-.9-.1l-.9-.9c.3-.3.3-.7 0-.9-.3-.3-.7-.3-.9 0l-.9-.9c.3-.3.3-.7 0-.9-.3-.3-.7-.3-.9 0l-.9-.9c.3-.3.3-.7 0-.9-.3-.3-.7-.3-.9 0l-.9-.9c-.1-.5-.1-.9-.3-1.2-.3-.3-.7-.3-.9 0l-.2-.2c0-.2.1-.4.1-.7.1-.5.2-1.1.4-1.6l10.6 10.6c-.8.3-1.5.4-2.3.6zM28 17.6c-1.2 2.3-2.6 4.4-4.3 6.1-2.3 2.3-5.2 4.1-8.4 5.4-.4.1-.7.3-1.1.4L2.6 17.8c.4-1.2.8-2.3 1.4-3.4 1.2-2.3 2.6-4.4 4.3-6.1 2.3-2.3 5.2-4.1 8.4-5.4.3-.1.6-.2 1-.3l11.7 11.7c-.4 1.2-.9 2.3-1.4 3.3zm2.2-6.4c-.1.6-.3 1.2-.4 1.8L19.1 2.2c.8-.2 1.5-.4 2.3-.5l.2.2c-.3.3-.3.7 0 .9.1.2.3.2.5.2s.3-.1.5-.2l.9.9c-.3.3-.3.7 0 .9.1.1.3.2.5.2s.3-.1.5-.2l.9.9c-.3.3-.3.7 0 .9.1.1.3.2.5.2s.3-.1.5-.2l.9.9c-.3.3-.3.7 0 .9.1.1.3.2.5.2s.3-.1.5-.2l.9.9c-.3.3-.3.7 0 .9.1.1.3.2.5.2s.3-.1.5-.2l.2.2c-.1.6-.1.8-.2 1zm.4-2.2l-1.9-1.9-1.9-1.9-1.9-1.9L23 1.4c.6-.1 1.2-.1 1.8-.1 2.2 0 3.9.4 4.6 1.2.9.8 1.5 3.1 1.2 6.5zm-9 1.4c-.3-.3-.7-.3-.9 0l-1.9 1.9-.9-.9c-.3-.3-.7-.3-.9 0-.3.3-.3.7 0 .9l.9.9-1.9 1.9-1-.9c-.3-.3-.7-.3-.9 0-.3.3-.3.7 0 .9l.9.9-1.9 1.9-.9-.9c-.3-.3-.7-.3-.9 0-.3.3-.3.7 0 .9l.9.9-1.9 1.9c-.3.3-.3.7 0 .9.1.1.3.2.5.2s.3-.1.5-.2l1.9-1.9.9.9c.1.1.3.2.5.2s.3-.1.5-.2c.3-.3.3-.7 0-.9l-.9-.9L16 17l.9.9c.1.1.3.2.5.2s.3-.1.5-.2c.3-.3.3-.7 0-.9l-1-1 1.9-1.9.9.9c.1.1.3.2.5.2s.3-.1.5-.2c.3-.3.3-.7 0-.9l-.9-.9 1.9-1.9c.2-.2.2-.7-.1-.9z"/></g><g id="Layer_15" class="st0"><path class="st1" d="M4.1 1.8l2.3.2 2.5.3 2.7.3h4.2l2.8-.1 2.3-.2 1.7-.5 1.3-.5 2.5-.6 1.1-.4h.9l.4.6v1.4l-.5 1.4-1.3.7-1.4.9-1.7.8-2.4.2-2.3-.2-1.8-.5-1.9-.1-3.9.6-3.1 1.1-1.3.6H5.9l-1.3-.5-.9-1.2-.6-1.8.2-1.5z"/><path class="st2" d="M15.8 23.1V6.2c-.3 0-.7.1-1.1.1-1.8.3-5.8 1.5-5.8 1.5s-1.4.8-2.7.8c-.4 0-.9-.1-1.2-.3l-.1-.1v4.1s-.8 10.4 10.9 10.8c-.1 0 0 0 0 0zm-.7-.8c-3.1-.2-5.4-1.2-7.1-3-2.6-2.9-2.4-6.9-2.4-7v-3h.6c1.3 0 2.7-.7 3-.8.5-.2 4-1.2 5.6-1.5h.2v15.3zm7.8-15.4c-.4.1-.8.1-1.2.1-1.6 0-3-.3-3.3-.4-.2-.1-.7-.3-1.4-.4V23c9.9-.5 6-10.5 6-10.5s-.6-2.9-.1-5.6zM22.2 20c-.8 1.3-2.3 2.1-4.4 2.3V7.1c.1 0 .2.1.2.1.4.3 2.2.5 3.7.5h.4c-.2 2.5.3 4.9.3 5 0 .2 1.6 4.5-.2 7.3zM29.1.5C29 .1 28.5 0 28 0c-1.8 0-5 1.2-5 1.2s-1.6 1-7.3 1C12.9 2.3 9.1 2 4 1.3c0 0-3.1 3.4.9 6.6L5 8c.3.2.8.3 1.2.3 1.3 0 2.7-.8 2.7-.8s4-1.3 5.8-1.5c.6-.1 1.1-.1 1.5-.1 1.1 0 1.9.2 2.2.4.2.1 1.7.4 3.3.4.4 0 .8 0 1.2-.1.6-.1 1.2-.2 1.7-.5 2-.9 5.2-2 4.5-5.6zM25 5.1c-.2.1-.5.2-.7.3-.4.2-.9.3-1.5.4-.3 0-.7.1-1.1.1-1.4 0-2.7-.2-2.9-.3-.4-.2-1.3-.5-2.5-.5-.5 0-1.1 0-1.6.1-1.8.3-5.7 1.5-5.9 1.6h-.2s-1.3.7-2.4.7c-.3 0-.6-.1-.8-.2h-.1c-1-.9-1.6-1.8-1.7-2.8-.1-1.1.4-2 .7-2.4 4.4.6 8.3.9 11.4.9 5.3 0 7.2-.9 7.6-1.1.9-.3 3.3-1.2 4.6-1.2h.4c.5 2.5-1.1 3.4-3.3 4.4zm-8.3 21.1v-20h-.5v20c-1.3.2-2.2 1.7-2.3 3.7H13V32h7v-2.1h-1c-.1-2-1.1-3.5-2.3-3.7zm-.3.5c1 0 1.9 1.4 2 3.1h-4.1c.2-1.7 1.1-3.1 2.1-3.1zm2.8 4.6h-5.5v-.7h5.5v.7z"/></g><g id="Layer_16" class="st0"><path class="st1" d="M7.7 9.6l7.2-.1.1 1.4 1.6.1.5-1.3 6.8-.1 3.2 1.4 1.7 2.4.5 1.8-.4 2.8-1 1.6-1.3 1.2-2.3 1H8.2l-2.3-.9-1.6-1.3-1.2-1.7-.3-1.8.1-1.9 1-2.4 1-1.1 2.5-1z"/><path class="st2" d="M29.4 9.4c-1.7-1.7-3.9-2.6-6.3-2.6h-5.6v-.7c0-.3-.2-.6-.6-.6H15c-.3 0-.6.2-.6.6v.8H8.9c-4.9 0-9 4-8.9 8.9 0 2.3.9 4.5 2.5 6.1C4 23.4 6 24.3 8.1 24.5c.1.5.3.9.7 1.3.5.5 1.1.7 1.8.7h10.8c1.2 0 2.2-.9 2.5-2 2.1-.2 4.1-1.1 5.6-2.6 1.6-1.7 2.5-3.9 2.5-6.2 0-2.4-.9-4.6-2.6-6.3zm-11.9 1.5v-.8H23c3.1 0 5.6 2.4 5.6 5.5 0 1.5-.6 2.9-1.6 4-1 1-2.4 1.6-3.9 1.6H8.9c-3.1 0-5.6-2.4-5.6-5.5 0-1.5.6-2.9 1.6-4 1-1 2.4-1.6 3.9-1.6h5.6v.8c0 .3.2.6.6.6h2c.3 0 .5-.3.5-.6zm-1.9-4.3h.8v3.8h-.8V6.6zm13.1 14.5c-1.4 1.5-3.3 2.3-5.3 2.3-.3 0-.5.3-.5.6 0 .8-.6 1.4-1.4 1.4H10.6c-.4 0-.7-.1-1-.4-.3-.3-.4-.6-.4-1 0-.3-.2-.5-.5-.6-2-.1-3.9-.9-5.3-2.3-1.4-1.5-2.2-3.4-2.2-5.5C1.1 11.4 4.7 8 8.9 8h5.5v1H8.9c-1.8 0-3.5.7-4.7 2-1.3 1.3-1.9 2.9-1.9 4.7 0 3.7 3.1 6.7 6.7 6.7h14.2c1.8 0 3.4-.7 4.7-1.9 1.3-1.3 1.9-2.9 1.9-4.7 0-3.7-3.1-6.7-6.7-6.7h-5.5V8h5.6c2.1 0 4 .8 5.5 2.3 1.5 1.5 2.3 3.4 2.3 5.5-.1 1.9-.9 3.8-2.3 5.3z"/></g><g id="Layer_17" class="st0"><circle class="st3" cx="13.7" cy="3.3" r="2.9"/><path class="st4" d="M16.7 3.3c0 1.6-1.3 2.9-2.9 2.9-1.6 0-2.9-1.3-2.9-2.9 0-1.6 1.3-2.9 2.9-2.9 1.5-.1 2.9 1.2 2.9 2.9zM25 23.8s-.6-7.7-.7-8.4c-.1-.7-.8-1.2-1.4-1.1-.7.1-1.6.5-3.9 1.9l.6-6.4s3.8-7.3 4-7.7c.2-.6.4-1.2-.3-1.6-.8-.4-1.4.7-1.4.7l-4.5 7.1s-3.1.3-4.2.4c-.6 0-1 .2-1.7.6-.6.3-2.8 1.5-2.8 1.5s-3-3.4-3.4-4c-.5-.7-1.1-.6-1.5-.3s-.2 1.2.2 1.8c.4.7 2.4 3.6 3.1 4.4.8 1 1.2.8 1.8.6.6-.2 3-1.1 3-1.1l.8 6.4c0 .1-3.7 8.7-4.5 10.9-.3.7-.1 1.7.6 2 1.1.5 2-.3 2.4-1.1.6-1.1 4.9-8.7 4.9-8.7 2 .2 2.8-.6 3.4-1 .5-.3 2.3-1.9 2.3-1.9l.5 5s.3 1.9 1.5 1.7c1.2-.1 1.2-1.7 1.2-1.7zm-12.3-5.6c8.1 0 15.7-10.7 15.7-17.8M18 31.1v-9.2"/></g><path class="st0 st5" d="M31.5 24.4H30v-2.6-.6V17.9c0-2.4-1.9-4.3-4.3-4.3s-4.3 1.9-4.3 4.3v6.5h-.8v-2.6-.6V17.9c0-2.4-1.9-4.3-4.3-4.3S12 15.5 12 17.9v6.5h-1v-2.6-.6V17.9c0-2.4-1.9-4.3-4.3-4.3s-4.3 1.9-4.3 4.3v6.5H.5c-.3 0-.5.2-.5.5v2.3c0 .3.2.5.5.5h.8V31c0 .3.2.5.5.5h2.1c.3 0 .5-.2.5-.5v-3.3H15V31c0 .3.2.5.5.5h2.1c.3 0 .5-.2.5-.5v-3.3h10V31c0 .3.2.5.5.5h2.1c.3 0 .5-.2.5-.5v-3.3h.5c.3 0 .5-.2.5-.5v-2.3c-.2-.3-.4-.5-.7-.5zm-9.3-6.5c0-1.9 1.5-3.4 3.4-3.4S29 16 29 17.9V19c-.8-1-2-1.6-3.4-1.6S23 18 22.2 19v-1.1zm0 3.8c0-1.9 1.5-3.4 3.4-3.4s3.4 1.5 3.4 3.4v2.6h-6.8v-2.6zm-9.5-3.8c0-1.9 1.5-3.4 3.4-3.4s3.4 1.5 3.4 3.4V19c-.8-1-2-1.6-3.4-1.6s-2.6.6-3.4 1.6v-1.1zm0 3.8c0-1.9 1.5-3.4 3.4-3.4s3.4 1.5 3.4 3.4v2.6h-6.8v-2.6zm-9.5-3.8c0-1.9 1.5-3.4 3.4-3.4S10 16 10 17.9V19c-.8-1-2-1.6-3.4-1.6-1.3 0-2.6.6-3.4 1.6v-1.1zm0 3.8c0-1.9 1.5-3.4 3.4-3.4s3.4 1.5 3.4 3.4v2.6H3.2v-2.6zm.1 8.7H2.2v-2.8h1.1v2.8zm13.7 0h-1.1v-2.8H17v2.8zm13.1 0H29v-2.8h1.1v2.8zm.9-3.7H1v-1.4h30v1.4zM21.9.6H10c-.4 0-.7.3-.7.7v4.4c0 .4.3.7.7.7h11.9c.4 0 .7-.3.7-.7V1.3c0-.4-.3-.7-.7-.7zm.2 5.1c0 .1-.1.2-.2.2H10c-.1 0-.2-.1-.2-.2V1.3c0-.1.1-.2.2-.2h11.9c.1 0 .2.1.2.2v4.4zM15 2.6h1.8c.1 0 .2-.1.2-.2s-.1-.2-.2-.2H15c-.1 0-.2.1-.2.2s.1.2.2.2zM21.5 5H10.4c-.1 0-.2.1-.2.2s.1.2.2.2h11.1c.1 0 .2-.1.2-.2s-.1-.2-.2-.2zm0-.9H10.4c-.1 0-.2.1-.2.2s.1.2.2.2h11.1c.1 0 .2-.1.2-.2s-.1-.2-.2-.2zM16 7.9c-.2-.1-.3-.2-.3-.4s.1-.2.3-.4c.1 0 .1-.2.1-.3 0-.1-.2-.2-.3-.1-.4.2-.6.5-.6.8 0 .3.2.6.6.8.2.1.3.2.3.4 0 .1-.1.2-.3.4-.1 0-.2.2-.1.3 0 .1.1.1.2.1h.1c.4-.2.6-.5.6-.8 0-.3-.2-.6-.6-.8zm-2.4.5c-.2-.1-.3-.2-.3-.4 0-.1.1-.2.3-.4.1 0 .2-.2.1-.3 0-.1-.2-.2-.3-.1-.4.3-.6.5-.6.8 0 .3.2.6.6.8.2.1.3.2.3.4 0 .1-.1.2-.3.4-.1 0-.2.2-.1.3 0 .1.1.1.2.1h.1c.4-.2.6-.5.6-.8 0-.4-.2-.6-.6-.8zm4.9 0c-.2-.1-.3-.2-.3-.4 0-.1.1-.2.3-.4.1 0 .1-.2.1-.3 0-.1-.2-.2-.3-.1-.4.2-.6.5-.6.8 0 .3.2.6.6.8.2.1.3.2.3.4 0 .1-.1.2-.3.4-.1 0-.2.2-.1.3 0 .1.1.1.2.1h.1c.3-.3.5-.6.5-.9 0-.3-.2-.5-.5-.7z" id="Layer_18"/><g id="Layer_19" class="st0"><path class="st1" d="M6.1 3.5l17.3 1.7.2 24.1-17.5 2.1z"/><path class="st2" d="M6 32H3c-.2 0-.4-.2-.4-.4V.4c-.1-.2.1-.4.3-.4H29c.2 0 .4.2.4.4v31.1c0 .2-.2.4-.4.4h-3c-.2 0-.4-.2-.4-.4V3.9H15.2l8.5.8c.2 0 .4.2.4.4v24.2c0 .2-.2.4-.4.4L6 32zm20.5-.9h2.2V.9H3.4v30.2h2.2V3.5v-.2c0-.1.1-.1.1-.2.1 0 .1-.1.2-.1H26c.2 0 .4.2.4.4v27.7zM6.4 4v27l16.7-2V5.6L6.4 4zm14.5 14.7c-.8 0-1.4-.7-1.4-1.7 0-.9.6-1.7 1.4-1.7.8 0 1.4.7 1.4 1.7-.1 1-.7 1.7-1.4 1.7zm0-2.4c-.2 0-.5.3-.5.8s.3.8.5.8.5-.3.5-.8-.3-.8-.5-.8z"/></g><g id="Layer_20" class="st0"><circle class="st1" cx="9.8" cy="13.2" r=".8"/><circle class="st1" cx="4.8" cy="13.2" r="1.1"/><circle class="st1" cx="14.1" cy="13.2" r="1.1"/><circle class="st1" cx="26.8" cy="13.2" r="1"/><path class="st2" d="M4.9 11.3c-1 0-1.9.8-1.9 1.9 0 1 .8 1.9 1.9 1.9 1 0 1.9-.8 1.9-1.9-.1-1-.9-1.9-1.9-1.9zm0 2.7c-.5 0-.9-.3-.9-.8s.4-.8.8-.8.8.4.8.8c.1.5-.3.8-.7.8zm5-2.4c-.9 0-1.6.7-1.6 1.6 0 .9.7 1.6 1.6 1.6.9 0 1.6-.7 1.6-1.6-.1-.9-.8-1.6-1.6-1.6zm0 2.1c-.3 0-.5-.2-.5-.5s.2-.5.5-.5.5.2.5.5-.2.5-.5.5zm17-2.1c-.9 0-1.6.7-1.6 1.6 0 .9.7 1.6 1.6 1.6.9 0 1.6-.7 1.6-1.6 0-.9-.7-1.6-1.6-1.6zm0 2.1c-.3 0-.5-.2-.5-.5s.2-.5.5-.5.5.2.5.5-.2.5-.5.5zm-12.8-2.1c-.9 0-1.6.7-1.6 1.6 0 .9.7 1.6 1.6 1.6.9 0 1.6-.7 1.6-1.6 0-.9-.7-1.6-1.6-1.6zm0 2.1c-.3 0-.5-.2-.5-.5s.2-.5.5-.5.5.2.5.5-.2.5-.5.5zM28 9.2H8.9c-.3 0-.5.2-.5.5s.2.5.5.5H28c1.6 0 3 1.3 3 3 0 1.6-1.3 3-3 3h-3.2c-.3 0-.5.2-.5.5s.2.5.5.5H28c2.2 0 4-1.8 4-4s-1.8-4-4-4zm-5.2 7H4c-1.6 0-3-1.3-3-3 0-1.6 1.3-3 3-3h2.8c.3 0 .5-.2.5-.5s-.2-.5-.5-.5H4c-2.2 0-4 1.8-4 4s1.8 4 4 4h9.9v1.9c-1 .2-2 .5-2.9 1.1-.9.7-1.4 1.4-1.4 2.1 0 .3.2.5.5.5h11.6c.3 0 .5-.2.5-.5 0-.7-.4-1.3-1.2-1.9-.2-.2-.5-.1-.7.1-.2.2-.1.5.1.7.3.2.5.4.6.6H10.9c.2-.2.4-.5.8-.7.8-.6 1.8-.9 2.8-1h3c.4 0 .8.1 1.3.2.3.1.6-.1.6-.3.1-.3-.1-.6-.3-.6-.3-.1-.7-.2-1-.2v-1.9h4.7c.3 0 .5-.2.5-.5 0-.4-.2-.6-.5-.6zM17 19h-2v-1.8h2V19z"/></g><g id="Layer_21" class="st0"><path class="st1" d="M6.3 23.6L20.5 7.1s.9-.7 2.3-.4l5.2.1s2.9.2 3.6 3.7c0 0 .1 3.3-3.6 3.7l-3.6-.1-13.3 16-.8.9-6.1.3-1.3-.3-1.4-1.1-.8-1.3v-1.5l.6-2.1 1.1-.8 1.8-.3 2.1-.3z"/><path transform="translate(1 1)" class="st2" d="M31 9.3c-.1-2.3-2.1-4.2-4.4-4.2h-5.9c-.7 0-1.4.3-1.8.9L14 11.8V9.4c0-1.4-.7-2.5-1.8-3.2C13.3 5.5 14 4.4 14 3c0-2.1-1.7-3.7-3.7-3.7S6.5.9 6.5 3c0 1.4.7 2.5 1.8 3.2-1.1.7-1.8 1.8-1.8 3.2v11.2L5.3 22c-.1.1-.2.2-.4.2H3.4C1 22.2-1 24.1-1 26.4c-.1 1.1.4 2.2 1.2 3.1.8.8 1.9 1.3 3 1.3h5c.7 0 1.4-.3 1.8-.9l13.3-16c.2-.1.3-.2.5-.2h2.8c1.2 0 2.2-.5 3-1.3 1-.9 1.4-1.9 1.4-3.1zM7.5 3C7.5 1.5 8.7.3 10.2.3s2.7 1.2 2.7 2.7c0 1.5-1.2 2.7-2.7 2.7S7.5 4.5 7.5 3zm0 16.4v-10c0-1.5 1.2-2.7 2.7-2.7s2.7 1.2 2.7 2.7v3.7L10 16.5l-2.5 2.9zM29 11.6c-.6.6-1.4 1-2.3 1h-2.8c-.5 0-1 .3-1.3.6l-13.3 16c-.3.3-.6.5-1 .5h-5c-.9 0-1.7-.3-2.3-1-.6-.6-.9-1.5-.9-2.3.1-1.7 1.5-3.1 3.4-3.1H5c.5 0 .9-.2 1.2-.6l13.5-16c.3-.3.6-.5 1-.5h5.9c1.8 0 3.3 1.4 3.4 3.1-.1.9-.4 1.7-1 2.3zm-3.4 7.7c-.1-.2-.3-.3-.5-.3s-.4.1-.5.3L21 22.9c-.2.2-.2.5 0 .7.2.2.5.2.7 0l2.8-2.8v9.4c0 .3.2.5.5.5s.5-.2.5-.5v-9.4l2.8 2.8c.1.1.2.2.4.2s.3-.1.4-.2c.2-.2.2-.5 0-.7l-3.5-3.6z"/></g><g id="Layer_22" class="st0"><path class="st1" d="M7.8 10.7h22.8s1 .4.9 1.1c0 0 .2 1.2-1.3 1.2l-22.6-.1s.8-2.1.2-2.2z"/><path class="st2" d="M30.3 10.1H10V8.3c0-.3-.3-.5-.6-.5H2c-.2 0-.5.2-.5.5v14.9h-1c-.3 0-.5.2-.5.5s.2.5.5.5H11c.3 0 .5-.2.5-.5s-.2-.5-.5-.5h-1v-9.7h20.4c.9 0 1.7-.8 1.7-1.7-.1-.9-.9-1.7-1.8-1.7zM8.2 11.2h3.7l-1.3 1.3H8.2c.1-.2.1-.4.1-.7 0-.2-.1-.4-.1-.6zm5.1 0h1.4l-1.3 1.3H12l1.3-1.3zm2.8 0h3l-1.3 1.3h-3l1.3-1.3zm4.5 0H22l-1.3 1.3h-1.4l1.3-1.3zm2.8 0h3l-1.3 1.3h-3l1.3-1.3zm4.5 0h1.4L28 12.5h-1.4l1.3-1.3zm-19 12H2.5V8.8h6.4v1.3H7.7c-.5-.6-1.2-1-2.1-1-1.5 0-2.7 1.2-2.7 2.7s1.2 2.7 2.7 2.7c.8 0 1.6-.4 2.1-1H9l-.1 9.7zM7.2 11.8c0 .9-.7 1.7-1.7 1.7s-1.7-.7-1.7-1.7.7-1.7 1.7-1.7 1.7.8 1.7 1.7zm23.1.7h-.9l1.2-1.2c.2.1.3.3.3.6.1.3-.2.6-.6.6zM7.1 15.2H4.4c-.3 0-.5.2-.5.5s.2.5.5.5h2.8c.3 0 .5-.2.5-.5-.1-.3-.3-.5-.6-.5z"/></g><g id="Layer_23" class="st0"><path class="st1" d="M0 15.5h32v1H0z"/><path class="st2" d="M26 21.5v1h1V32h1v-9.5h1v-1h-3zm-8 0v1h1V32h1v-9.5h1v-1h-3zm-7.5 0v1h1V32h1v-9.5h1v-1h-3zm-7.5 0v1h1V32h1v-9.5h1v-1H3zm2-12V0H4v9.5H3v1h3v-1H5zm8 0V0h-1v9.5h-1v1h3v-1h-1zm7.5 0V0h-1v9.5h-1v1h3v-1h-1zm7.5 0V0h-1v9.5h-1v1h3v-1h-1zm-28 6h1v1H0v-1zm3 0h2v1H3v-1zm4 0h2v1H7v-1zm4 0h2v1h-2v-1zm4 0h2v1h-2v-1zm4 0h2v1h-2v-1zm4 0h2v1h-2v-1zm4 0h2v1h-2v-1zm4 0h1v1h-1v-1z"/></g><g id="Layer_24" class="st0"><path class="st1" d="M13.6 7.8h14.3v11.3H13.6z"/><path class="st2" d="M12.8 26.7h-1c-.6 0-1.1.5-1.1 1.1v1c0 .6.5 1.1 1.1 1.1h1c.6 0 1.1-.5 1.1-1.1v-1c0-.6-.5-1.1-1.1-1.1zm0 2.1h-1v-1h1v1zM26.4 6.9h-5.1V2.4c0-1.3-1.1-2.4-2.4-2.4H5.6C4.3 0 3.2 1.1 3.2 2.4V29.8c0 .5.2 1 .5 1.3.4.5 1 .8 1.6.8h13.9c1.2 0 2.1-.9 2.1-2.1V19.7h5.1c1.3 0 2.4-1.1 2.4-2.4v-8c0-1.3-1.1-2.4-2.4-2.4zm-21.1 24c-.3 0-.6-.1-.8-.4-.1-.2-.2-.4-.2-.7V26h16v3.8c0 .6-.5 1-1 1l-14 .1zm15-5.8h-16V4.3H8c.3 0 .5-.2.5-.5s-.2-.6-.5-.6H4.3v-.8c0-.8.6-1.4 1.4-1.4H19c.8 0 1.4.6 1.4 1.4v4.5h-5.1c-.2 0-.5 0-.7.1-1 .3-1.7 1.2-1.7 2.2v8.1c0 1.1.7 2 1.7 2.2.2.1.4.1.7.1h5.1v5.5zm7.4-7.7c0 .7-.6 1.3-1.3 1.3H15.2c-.1 0-.2 0-.4-.1-.5-.2-.9-.6-.9-1.2V9.3c0-.6.4-1.1.9-1.2.1-.1.2-.1.4-.1h11.2c.7 0 1.3.6 1.3 1.3v8.1zm-5-4.5L20 11.3c-.4-.2-.8 0-.8.5V15c0 .4.5.7.8.5l2.7-1.6c.3-.3.3-.8 0-1zM20.3 14v-1.3l1.1.7-1.1.6z"/></g><g id="Layer_25" class="st0"><path class="st1" d="M13.9 4.1l.3-1.3.9-.8 1.1-.1 1.1.2s.4.6.4.8.2 1.1.2 1.1l-.6.5-3.1-.2-.3-.2zM11.5 27.2l3.4.3 1.6-.1 3.8-.2-.5 1.2-1.2 1.2-1.8.5-1.9.1-1.3-.9-1.2-.9z"/><path class="st2" d="M25.1 16.8V12c0-3.7-2.4-6.1-4.5-7-.6-.3-1.2-.5-1.9-.6V4c0-1.5-1.2-2.7-2.7-2.7S13.3 2.5 13.3 4v.4c-.6.2-1.1.4-1.7.6C9.3 6 7 8.6 6.9 12v4.8c0 3.4-1.2 6.3-3.6 8.7-.1.1-.2.3-.1.5s.2.3.4.4l5.1.9c.9.2 1.8.3 2.6.4.9 1.8 2.8 3 4.8 3s3.8-1.2 4.8-3c.8-.1 1.7-.2 2.6-.4l5.1-.9c.2 0 .4-.2.4-.4.1-.2 0-.4-.1-.5-2.6-2.5-3.8-5.4-3.8-8.7zM14.4 4c0-.9.7-1.6 1.6-1.6.9 0 1.6.7 1.6 1.6v.1c-1.1-.2-2.1-.1-3.2 0V4zm1.7 25.6c-1.4 0-2.6-.7-3.4-1.8 1.2.2 2.3.2 3.4.2s2.2-.1 3.4-.2c-.8 1.1-2.1 1.8-3.4 1.8zm7.2-3.4c-1 .2-2 .3-2.8.4-.4 0-.8.1-1.1.1-.3 0-.7.1-1 .1H14c-.3 0-.6 0-1-.1-.4 0-.7-.1-1.1-.1-.9-.1-1.8-.3-2.9-.4l-4.1-.7c2-2.4 3.1-5.3 3.1-8.7V12c0-2.9 2.1-5.1 4.1-6.1.6-.3 1.2-.5 1.9-.6 1.3-.3 2.7-.3 4 0 .7.1 1.4.4 2 .7 2 .9 3.9 3.1 3.9 6.1v4.8c0 3.2 1.2 6.2 3.4 8.7l-4 .6zM19.4 7.4c-2.1-.9-4.6-.9-6.7 0-1.1.5-3.1 2.1-3.1 4.6 0 .3.2.5.5.5s.5-.2.5-.5c0-2 1.6-3.2 2.6-3.7 1.8-.8 4-.8 5.8 0 .3.1.6 0 .7-.3.1-.2 0-.5-.3-.6zM2.6 12.2c-.2-.2-.5-.2-.8 0C.6 13.3 0 14.9 0 16.5c0 1.7.6 3.2 1.8 4.4.1.1.2.1.4.1s.3-.1.4-.2c.2-.2.2-.5 0-.8-1-1-1.5-2.2-1.5-3.6s.5-2.7 1.5-3.6c.2-.1.2-.4 0-.6zm1.8 7.6c.1 0 .3-.1.4-.2.2-.2.2-.5 0-.8-1.4-1.4-1.4-3.6 0-4.9.2-.2.2-.5 0-.8-.2-.2-.5-.2-.8 0-1.8 1.8-1.8 4.7 0 6.5.2.2.3.2.4.2zm25.8-7.6c-.2-.2-.5-.2-.8 0-.2.2-.2.5 0 .8 1 1 1.5 2.2 1.5 3.6s-.5 2.7-1.5 3.6c-.2.2-.2.5 0 .8.1.1.2.2.4.2s.3-.1.4-.2c1.2-1.2 1.8-2.7 1.8-4.4s-.6-3.3-1.8-4.4zm-3 1c-.2.2-.2.5 0 .8 1.4 1.4 1.4 3.6 0 4.9-.2.2-.2.5 0 .8.1.1.2.2.4.2s.3-.1.4-.2c1.8-1.8 1.8-4.7 0-6.5-.3-.2-.6-.2-.8 0z"/></g><g id="Layer_26" class="st0"><path class="st1" d="M23.4 19.7l1.7-.8.9-.2s1.4.4 1.6.6 1.6 1.4 1.7 1.6 1.2 1.8 1.3 1.9.4 1.8.5 2.1.3 1.4.3 1.8-.1 1.5-.3 1.9-1 .9-1 .9-.7.8-.9.9-.8.3-1 .3-1.6.4-1.6.4H26s-1.1-.1-1.3-.1-.6-.2-.8-.3-.5-.3-.8-.5-.6-.3-.8-.5-.8-.5-.8-.8-.4-1-.4-1-.3-.8-.3-1-.1-.7-.1-1.1v-1.1c0-.5.1-1.3.1-1.3l.3-.8s.3-.9.5-1.3.3-.6.5-.9 1.3-.7 1.3-.7z"/><path class="st2" d="M30.3 20.9c-.9-1.3-1.9-2.2-3-2.6l1.8-1.8c.2-.2.2-.5.1-.7-.1-.2-.3-.4-.6-.4h-5.3-.1c.4-1.1.6-2.2.6-3.4v-.1-.8c-.2-5.2-.4-6.7-3.4-9.1-1.8-1.4-4-1.9-6-1.9-3.7 0-7.1 1.6-7.1 1.6l1.4 1S3.5 6.2 4.8 14.8c0 .1 0 .1.1.1.2 0 .9-.5 1.8-1.2.3 1.8 1.2 3.6 2.3 5V21c-.1.2-.8 1-3.4 2-.7.3-1.3.7-3 1.2h-.1C1 24.6 0 26 0 27.6V32h26c3.3 0 6-2.7 6-6 0-1.6-.6-3.6-1.7-5.1zm-3.2-4.2l-1.1 1-1.1-1.1h2.2zm-4.2-.2l1.8 1.8c-1.1.4-2.1 1.3-3 2.6l-.1.1s0-.1-.1-.1v-2.3c.5-.7.9-1.4 1.4-2.1-.1-.1-.1-.1 0 0zm-.4-4.6c0 .5 0 .9-.1 1.4h-1.8c.4-.4.7-.8.7-1.3s-.2-1-.7-1.3h1.8c.1.4.1.8.1 1.2zm-9.1-2.6c1.8-.8 3.9-1.4 5.9-1.4h.6l1.4 1.4h-7.9zm6.5 2.7c0 .3-.5.7-1.3.7s-1.3-.4-1.3-.7c0-.3.5-.7 1.3-.7s1.3.4 1.3.7zm-3.3 1.3H14c.4-.4.7-.8.7-1.3s-.2-1-.7-1.3h2.7c-.4.4-.7.8-.7 1.3-.1.5.2 1 .6 1.3zM6 12.5c0-1 0-2 .2-3 .2-1.2.6-2.3 1.2-3.3.9-1.7 2-2.4 2.1-2.5l1.7-1.1-1-.7c1.2-.3 2.6-.6 4.2-.6 2.1 0 3.8.5 5.2 1.6.7.6 1.2 1.1 1.6 1.6.3.5.6.9.8 1.5.2.7.3 1.5.4 2.4L20.9 7l-.4-.4h-1.2c-1.3 0-2.7.2-4.2.7-1.2.4-2.4.9-3.7 1.6C9.2 10 7.3 11.5 6 12.5zm7.3-.5c0 .3-.5.7-1.3.7s-1.3-.4-1.3-.7c0-.3.5-.7 1.3-.7s1.3.4 1.3.7zm-5.3.6c.4-.3.8-.6 1.3-.9v.3c0 .5.2 1 .7 1.3H8.1c0-.2 0-.4-.1-.7zm.5 2.1h13.6c-.5 1.3-1.2 2.7-2.3 3.9-.8.9-1.6 1.6-2.5 2.1-.8.5-1.5.7-2 .7-.6 0-1.3-.3-2-.7-.9-.5-1.7-1.2-2.5-2.1-1.1-1.3-1.9-2.6-2.3-3.9zm12.4 7.6c-.1.3-.2.5-.3.8-1.1.8-2.9 1.6-5.3 1.6-1.8 0-3.4-.5-4.8-1.4-.5-.3-.8-.6-1.1-.8.4-.3.6-.6.8-1 0 0 0-.1.1-.1l.1-.2v-1.1c1.6 1.6 3.4 2.6 4.9 2.6s3.3-1 4.9-2.6v1.1l.1.2s0 .1.1.1c.1.3.3.5.5.8zm-18 3.1c1.3-.4 2-.7 2.6-1l.6-.3c.7-.3 1.5-.6 2.2-1 1 .9 3.3 2.7 7 2.7 2 0 3.6-.5 4.8-1.1-.1.5-.1.9-.1 1.3 0 .5.1.9.2 1.3H1.4c.1-.8.7-1.6 1.5-1.9zm12.4 5.3h-14v-2h19.3c.4.8.9 1.5 1.6 2h-6.9zm10.7 0c-2.6 0-4.7-2.1-4.7-4.7 0-1.4.6-3 1.5-4.4.9-1.4 2.1-2.3 3.2-2.3s2.3.8 3.2 2.3c.9 1.4 1.5 3 1.5 4.4 0 2.6-2.1 4.7-4.7 4.7zm.7-5.6V24H28c.4 0 .7-.3.7-.7 0-.4-.3-.7-.7-.7h-1.3V22c0-.4-.3-.7-.7-.7-.4 0-.7.3-.7.7v.7H24c-.3 0-.5.2-.6.4-.1.2 0 .5.1.7l1.8 1.8v1.1H24c-.4 0-.7.3-.7.7 0 .4.3.7.7.7h1.3v.7c0 .4.3.7.7.7.4 0 .7-.3.7-.7V28H28c.3 0 .5-.2.6-.4.1-.3 0-.5-.1-.7l-1.8-1.8z"/></g><g id="Layer_27" class="st0"><path class="st1" d="M3.9.5l2 .2 1.3.6 1.8.5 1.5.4h1.4l2-.2 1.6-.6 1.8-.5 1.4-.3H20l1.3.2 1.1.7.6 1.7v2.9l-.5 2.5-1 3.8-1 3.2-1 2.3-1.4 2.1-1.1 1.4-1.5 1.3-1.7 1-1.5.4-1.5-.1-2.4-.8-2.1-2-1.7-2.3-1.2-2.6L2 13 .9 8.1.6 4.5l.1-2.3.6-1.2z"/><path class="st2" d="M15.7 15c-.3-.1-.6 0-.7.2 0 0-.9 1.8-3.3 1.8-2.3 0-3.2-1.8-3.3-1.8-.1-.2-.4-.3-.6-.2-.3.1-.4.5-.2.7 0 .1 1.2 2.4 4.2 2.4s4.2-2.3 4.2-2.4c.1-.3 0-.6-.3-.7zm-5.6-6.4c.2-.9-.9-1.8-2.3-2-.3 0-.5-.1-.8-.1-1.1 0-2 .5-2.1 1.2-.2.9.9 1.8 2.3 2 .3 0 .5.1.8.1 1.1 0 1.9-.5 2.1-1.2zm-4.2-.7c0-.1.3-.3 1.1-.3.2 0 .4 0 .6.1 1 .1 1.4.6 1.4.7 0 .1-.3.3-1 .3-.2 0-.4 0-.6-.1-1.1-.1-1.6-.6-1.5-.7zm17.6-4.2C23.5.5 22 0 18.7 0c-1 0-1.8.3-2.7.7-1.1.4-2.2.9-4.3.9-2 0-3.2-.5-4.3-.9C6.6.3 5.8 0 4.8 0 1.5 0 0 .6 0 3.7c0 7.1 4.1 20.8 11.7 20.8S23.5 10.8 23.5 3.7zM11.7 23.5C5.1 23.5 1.1 10.7 1.1 3.7c0-2.2.6-2.7 3.7-2.7.8 0 1.5.3 2.3.6 1.1.4 2.4 1 4.7 1 2.2 0 3.6-.6 4.7-1 .8-.3 1.4-.6 2.3-.6 3.1 0 3.7.4 3.7 2.7-.1 7-4.1 19.8-10.8 19.8zm4.8-17c-.3 0-.5 0-.8.1-.6.1-1.2.3-1.7.7-.5.4-.8.9-.7 1.4.1.7 1 1.2 2.1 1.2.3 0 .5 0 .8-.1 1.5-.3 2.5-1.1 2.3-2 0-.8-.8-1.3-2-1.3zm-.4 2.2c-.2 0-.4.1-.6.1-.7 0-1-.2-1.1-.3 0 0 .1-.2.3-.3.3-.2.7-.4 1.2-.5.2 0 .4-.1.6-.1.7 0 1 .2 1.1.3 0 .1-.5.6-1.5.8zm11.1-1.2c-1 0-1.7.3-2.4.6-.2.1-.4.2-.7.3-.3.1-.4.4-.3.7s.4.4.7.3c.3-.1.5-.2.7-.3.7-.3 1.2-.5 2-.5 3.1 0 3.7.4 3.7 2.7 0 7-4 19.7-10.7 19.7-2.5 0-5-2-6.9-5.3-.1-.3-.5-.4-.7-.2-.3.1-.4.5-.2.7 2 3.7 4.9 5.9 7.8 5.9C27.9 32 32 18.3 32 11.2c0-3.2-1.5-3.7-4.8-3.7zm-6.9 14.9c-3 0-4.2 2.3-4.2 2.4-.1.3 0 .6.2.7s.6 0 .7-.2c0 0 .9-1.8 3.3-1.8 2.3 0 3.2 1.8 3.3 1.8.1.2.3.3.5.3.1 0 .2 0 .2-.1.3-.1.4-.5.2-.7-.1-.1-1.3-2.4-4.2-2.4zm6.8-7.2c-.1-.8-.9-1.2-2.1-1.2-.3 0-.5 0-.8.1-.6.1-1.2.3-1.7.7-.5.4-.8.9-.7 1.4.1.7 1 1.2 2.1 1.2.3 0 .5 0 .8-.1 1.6-.4 2.6-1.3 2.4-2.1zm-3.1 1c-.7 0-1-.2-1.1-.3 0 0 .1-.2.3-.3.3-.2.7-.4 1.2-.5.2 0 .4-.1.6-.1.7 0 1 .2 1.1.3 0 .1-.5.6-1.5.8-.2.1-.4.1-.6.1z"/></g><g id="Layer_28" class="st0"><circle class="st1" cx="18" cy="16" r="13.2"/><path class="st2" d="M18.1 2.1c-3.9 0-7.5 1.6-10 4.2H1.5V1.2C1.5.8 1.2.4.7.4s-.7.4-.7.8v29.6c0 .4.3.8.8.8s.8-.3.8-.8v-5.1h6.5c2.5 2.6 6.1 4.2 10 4.2C25.8 29.9 32 23.7 32 16S25.8 2.1 18.1 2.1zM1.5 24.2V7.8h5.3c-1.7 2.3-2.7 5.1-2.7 8.2s1 5.9 2.7 8.2H1.5zm16.6 4.2c-6.8 0-12.4-5.6-12.4-12.4S11.2 3.6 18.1 3.6c6.8 0 12.4 5.6 12.4 12.4s-5.6 12.4-12.4 12.4zm6.6-17.3h-.4v-.4c0-.4-.3-.8-.8-.8H20c-.4 0-.8.3-.8.8 0 .4.3.8.8.8h2.7v3.6c0 2-1.6 3.6-3.6 3.6h-2.4c-2 0-3.6-1.6-3.6-3.6v-3.6h2.3c-.4 1.1-.2 2.5.7 3.3.3.3.8.3 1.1 0 .3-.3.3-.8 0-1.1-.6-.5-.5-1.7.1-2.5 1-1.2 1.2-3.4-.1-4.5-.3-.3-.8-.3-1.1 0-.3.3-.3.8 0 1.1.5.5.5 1.5.1 2.2H12.3c-.4 0-.8.3-.8.8v4.3c0 2.8 2.3 5.1 5.1 5.1H19c2.1 0 4-1.3 4.7-3.2h.8c1.4 0 2.5-1.1 2.5-2.5v-.8c.2-1.4-.9-2.6-2.3-2.6zm1 3.4c0 .5-.4 1-1 1h-.4v-2.8h.4c.5 0 1 .4 1 1v.8zm-.6 8.1c0 .4-.3.8-.8.8H11.6c-.4 0-.8-.3-.8-.8 0-.4.3-.8.8-.8h12.8c.4.1.7.4.7.8z"/></g><g id="Layer_29"><path class="st6" d="M29.2 19.8c0 1.5-1.2 2.8-2.8 2.8s-2.8-1.2-2.8-2.8S25 17 26.5 17s2.7 1.3 2.7 2.8zM13.7 6.2c-1.5 0-2.8 1.2-2.8 2.8s1.2 2.8 2.8 2.8 2.8-1.2 2.8-2.8-1.3-2.8-2.8-2.8z"/><path class="st7" d="M32 24.4c-.1-.4-.6-.7-1-.5l-5.2 1.5-4.5-3c-.1-.1-.3-.1-.4-.1H2.4c-.4 0-.8.4-.8.8s.4.8.8.8h18.2l4.6 3.1c.1.1.3.1.4.1h.2l5.6-1.6c.4-.3.7-.7.6-1.1zm-5.6-8.6c-2.2 0-4 1.8-4 4s1.8 4 4 4 4-1.8 4-4-1.8-4-4-4zm0 6.4c-1.3 0-2.4-1.1-2.4-2.4 0-1.3 1.1-2.4 2.4-2.4 1.3 0 2.4 1.1 2.4 2.4 0 1.3-1.1 2.4-2.4 2.4zM13.6 5c-2.2 0-4 1.8-4 4s1.8 4 4 4 4-1.8 4-4-1.8-4-4-4zm0 6.4c-1.3 0-2.4-1.1-2.4-2.4s1.1-2.4 2.4-2.4C14.9 6.6 16 7.7 16 9s-1.1 2.4-2.4 2.4zm4.4 6.1l-8-4.8c-.2-.1-.4-.1-.6-.1-.2.1-.4.2-.5.4l-3.2 6.4c-.2.4 0 .9.4 1.1.1.1.2.1.4.1.3 0 .6-.2.7-.4l2.8-5.6 7.3 4.4c.4.2.9.1 1.1-.3.1-.5 0-1-.4-1.2zm2.8 7.9H.8c-.4 0-.8.4-.8.8s.4.8.8.8h20c.4 0 .8-.4.8-.8s-.4-.8-.8-.8z"/></g></svg>