<?xml version="1.0" encoding="utf-8"?>
<!-- Generator: Adobe Illustrator 23.1.1, SVG Export Plug-In . SVG Version: 6.00 Build 0)  -->
<svg version="1.1" id="Layer_1" xmlns="http://www.w3.org/2000/svg" xmlns:xlink="http://www.w3.org/1999/xlink" x="0px" y="0px"
	 viewBox="0 0 32 32" style="enable-background:new 0 0 32 32;" xml:space="preserve">
<style type="text/css">
	.st0{fill:#2067d1;}
	.st1{fill:#010101;}
</style>
<g>
	<polygon class="st0" points="3.2,11.11 9.36,11.11 11.56,11.11 12.33,10.4 13.33,9.6 15.41,8.92 17.07,9.34 18.73,10.02 
		19.97,11.11 21.86,11.35 26.67,11.35 27.91,11.65 29.63,12.48 30.63,13.78 31.46,15.56 31.46,18.87 31.46,20.89 25.3,20.89 
		25,19.64 24.89,18.58 24.77,17.63 22.94,17.51 20.5,17.51 19.79,18.1 17.84,19.35 15.17,19.64 13.69,19.23 12.03,18.16 11.5,17.57 
		2.91,17.51 2.55,11.29 	"/>
	<g>
		<g>
			<g>
				<path class="st1" d="M26.13,10.67h-5.61c-0.76-0.92-1.78-1.59-2.92-1.91V5.87h1.6c0.88,1.18,2.56,1.42,3.73,0.53
					c1.18-0.88,1.42-2.56,0.53-3.73s-2.56-1.42-3.73-0.53c-0.2,0.15-0.38,0.33-0.53,0.53h-6.4c-0.88-1.18-2.56-1.42-3.73-0.53
					S7.65,4.69,8.53,5.87s2.56,1.42,3.73,0.53c0.2-0.15,0.38-0.33,0.53-0.53h1.6v2.89c-1.15,0.32-2.17,0.99-2.92,1.91H3.2v-1.6
					c0-1.47-1.19-2.66-2.67-2.67C0.24,6.4,0,6.64,0,6.93v14.93c0,0.29,0.24,0.53,0.53,0.53c1.47,0,2.66-1.19,2.67-2.67v-1.6h8.28
					c2.06,2.5,5.75,2.85,8.24,0.8c0.29-0.24,0.56-0.51,0.8-0.8H24c0.29,0,0.53,0.24,0.53,0.53v2.13c0,0.29,0.24,0.53,0.53,0.53h6.4
					c0.29,0,0.53-0.24,0.53-0.53v-4.27C32,13.29,29.37,10.67,26.13,10.67z M2.13,19.73c0,0.68-0.43,1.28-1.07,1.51V7.56
					c0.64,0.23,1.07,0.83,1.07,1.51V19.73z M12.51,4.8c-0.19,0-0.37,0.1-0.46,0.27c-0.44,0.77-1.42,1.03-2.19,0.59
					C9.1,5.21,8.84,4.23,9.28,3.47c0.44-0.77,1.42-1.03,2.19-0.59c0.24,0.14,0.45,0.34,0.59,0.59c0.1,0.17,0.27,0.27,0.46,0.27h6.98
					c0.19,0,0.37-0.1,0.46-0.27c0.44-0.77,1.42-1.03,2.19-0.59c0.77,0.44,1.03,1.42,0.59,2.19c-0.44,0.77-1.42,1.03-2.19,0.59
					c-0.24-0.14-0.45-0.34-0.59-0.59c-0.1-0.17-0.27-0.27-0.46-0.27h-2.42c-0.29,0-0.53,0.24-0.53,0.53v3.22
					C16.36,8.54,16.18,8.53,16,8.53s-0.36,0.01-0.53,0.02V5.33c0-0.29-0.24-0.53-0.53-0.53C14.93,4.8,12.51,4.8,12.51,4.8z
					 M30.93,20.27H25.6v-1.6c0-0.88-0.72-1.6-1.6-1.6h-3.74c-0.17,0-0.33,0.08-0.43,0.21c-1.58,2.12-4.59,2.55-6.7,0.97
					c-0.37-0.27-0.69-0.6-0.97-0.97c-0.1-0.13-0.26-0.21-0.43-0.21H3.2v-5.33h8.54c0.17,0,0.33-0.08,0.43-0.21
					c0.7-0.94,1.72-1.59,2.87-1.82c0.48-0.1,0.96-0.12,1.44-0.07c0.16,0.02,0.32,0.04,0.48,0.07c1.15,0.23,2.17,0.88,2.87,1.82
					c0.1,0.13,0.26,0.21,0.43,0.21h5.87c2.65,0,4.8,2.15,4.8,4.8V20.27z"/>
			</g>
		</g>
		<g>
			<g>
				<path class="st1" d="M29.22,22.07c-0.2-0.23-0.55-0.25-0.78-0.05c-0.02,0.02-0.04,0.04-0.05,0.05
					c-0.28,0.36-2.78,3.52-2.78,5.13c0,1.77,1.43,3.2,3.2,3.2s3.2-1.43,3.2-3.2C32,25.59,29.5,22.42,29.22,22.07z M28.8,29.33
					c-1.18,0-2.13-0.96-2.13-2.13c0-0.81,1.18-2.65,2.13-3.93c0.96,1.28,2.13,3.12,2.13,3.93C30.93,28.38,29.98,29.33,28.8,29.33z"
					/>
			</g>
		</g>
	</g>
</g>
</svg>
